<svg width="16" height="10" viewBox="0 0 16 10" fill="none" xmlns="http://www.w3.org/2000/svg">
<path d="M7.50156 0.939503L0.190145 8.34515C0.0680893 8.46871 2.09018e-08 8.63288 2.13535e-08 8.8036C2.18052e-08 8.97432 0.0680893 9.13848 0.190145 9.26205L0.198407 9.27002C0.257577 9.33013 0.3288 9.378 0.407743 9.4107C0.486685 9.44341 0.571697 9.46028 0.657608 9.46028C0.743518 9.46028 0.82853 9.44341 0.907472 9.4107C0.986415 9.378 1.05764 9.33013 1.11681 9.27002L8.00138 2.29625L14.8832 9.27002C14.9424 9.33013 15.0136 9.378 15.0925 9.4107C15.1715 9.44341 15.2565 9.46028 15.3424 9.46028C15.4283 9.46028 15.5133 9.44341 15.5923 9.4107C15.6712 9.378 15.7424 9.33013 15.8016 9.27002L15.8099 9.26205C15.9319 9.13848 16 8.97432 16 8.8036C16 8.63288 15.9319 8.46871 15.8099 8.34515L8.49844 0.939503C8.43414 0.874373 8.35681 0.822522 8.27113 0.787095C8.18545 0.751667 8.09321 0.733398 8 0.733398C7.90679 0.733398 7.81455 0.751667 7.72887 0.787095C7.64319 0.822522 7.56585 0.874373 7.50156 0.939503Z" fill="url(#paint0_linear_2034_1784)"/>
<defs>
<linearGradient id="paint0_linear_2034_1784" x1="12.6871" y1="0.733545" x2="9.67878" y2="10.5622" gradientUnits="userSpaceOnUse">
<stop stop-color="#16C062"/>
<stop offset="1" stop-color="#3EACFC"/>
</linearGradient>
</defs>
</svg>
