<svg width="68" height="52" viewBox="0 0 68 52" fill="none" xmlns="http://www.w3.org/2000/svg">
<path d="M42.9859 4.47777H24.4412V51.2777H19.3103V4.47777H0.765625V0H42.9859V4.47777Z" fill="url(#paint0_linear_713_1837)"/>
<path d="M48.9277 52C46.1424 52 43.5769 51.4944 41.2313 50.4833C38.8858 49.4241 36.8578 48.0037 35.1475 46.2222C33.4372 44.3926 32.0934 42.2982 31.1161 39.9389C30.1876 37.5797 29.7234 35.0519 29.7234 32.3556C29.7234 29.7074 30.1876 27.2278 31.1161 24.9167C32.0934 22.5575 33.4372 20.5112 35.1475 18.7778C36.8578 16.9964 38.8613 15.6001 41.158 14.589C43.5036 13.5297 46.0691 13.0001 48.8544 13.0001C51.6398 13.0001 54.1808 13.5297 56.4776 14.589C58.8231 15.6001 60.8266 16.9964 62.4881 18.7778C64.1495 20.5593 65.4445 22.6056 66.3729 24.9167C67.3014 27.2278 67.7656 29.6834 67.7656 32.2834C67.7656 32.6686 67.7412 33.0537 67.6923 33.4389C67.6923 33.8241 67.6679 34.0889 67.619 34.2334H35.0009C35.1475 36.2556 35.6117 38.1334 36.3936 39.8667C37.2243 41.5519 38.2505 43.0204 39.4722 44.2722C40.7427 45.5241 42.1842 46.5111 43.7968 47.2333C45.4582 47.9074 47.2174 48.2444 49.0743 48.2444C50.3449 48.2444 51.5909 48.0759 52.8126 47.7389C54.0342 47.4019 55.1582 46.9445 56.1844 46.3667C57.2105 45.7889 58.1146 45.0908 58.8964 44.2722C59.7271 43.4056 60.3624 42.4667 60.8022 41.4556L65.1269 42.6111C64.5405 44.0074 63.7097 45.2833 62.6347 46.4389C61.5596 47.5463 60.3135 48.5333 58.8964 49.4C57.4793 50.2185 55.9156 50.8444 54.2053 51.2778C52.495 51.7593 50.7358 52 48.9277 52ZM63.0012 30.4778C62.8546 28.4556 62.3659 26.626 61.5352 24.9889C60.7533 23.3038 59.7271 21.8593 58.4566 20.6556C57.235 19.4519 55.7934 18.513 54.132 17.8389C52.4705 17.1649 50.7114 16.8278 48.8544 16.8278C46.9975 16.8278 45.2384 17.1649 43.5769 17.8389C41.9155 18.513 40.4495 19.4519 39.179 20.6556C37.9573 21.8593 36.9556 23.3038 36.1737 24.9889C35.4407 26.6741 35.0009 28.5037 34.8543 30.4778H63.0012Z" fill="url(#paint1_linear_713_1837)"/>
<path d="M55.8895 10.749H53.6522V4.84465C53.6522 3.85052 53.4895 3.13179 53.1641 2.68846C52.8386 2.2317 52.3708 2.00332 51.7607 2.00332C51.4353 2.00332 51.1031 2.06377 50.7641 2.18468C50.4387 2.30559 50.1336 2.48023 49.8488 2.70861C49.5641 2.92356 49.3065 3.18553 49.076 3.49451C48.859 3.79006 48.6895 4.1192 48.5675 4.48192V10.749H46.3302V0.209859H48.3641V2.32574C48.7709 1.61373 49.3607 1.05621 50.1336 0.653185C50.9065 0.236727 51.7607 0.0284975 52.6963 0.0284975C53.3336 0.0284975 53.8556 0.142688 54.2624 0.371068C54.6827 0.599449 55.0081 0.915152 55.2386 1.31818C55.4827 1.70777 55.6522 2.16453 55.7471 2.68846C55.842 3.19896 55.8895 3.74305 55.8895 4.32071V10.749Z" fill="url(#paint2_linear_713_1837)"/>
<path d="M59.5861 0.210813L62.1894 3.81789L62.3725 4.16046L62.5555 3.81789L65.1589 0.210813H67.4776L63.5928 5.49044L67.5182 10.7499H65.1793L62.5555 7.163L62.3725 6.84058L62.2098 7.163L59.5657 10.7499H57.2268L61.1522 5.49044L57.2674 0.210813H59.5861Z" fill="url(#paint3_linear_713_1837)"/>
<defs>
<linearGradient id="paint0_linear_713_1837" x1="53.893" y1="0.00087149" x2="30.4442" y2="53.8399" gradientUnits="userSpaceOnUse">
<stop stop-color="#16C062"/>
<stop offset="1" stop-color="#3EACFC"/>
</linearGradient>
<linearGradient id="paint1_linear_713_1837" x1="53.893" y1="0.00087149" x2="30.4442" y2="53.8399" gradientUnits="userSpaceOnUse">
<stop stop-color="#16C062"/>
<stop offset="1" stop-color="#3EACFC"/>
</linearGradient>
<linearGradient id="paint2_linear_713_1837" x1="53.893" y1="0.00087149" x2="30.4442" y2="53.8399" gradientUnits="userSpaceOnUse">
<stop stop-color="#16C062"/>
<stop offset="1" stop-color="#3EACFC"/>
</linearGradient>
<linearGradient id="paint3_linear_713_1837" x1="53.893" y1="0.00087149" x2="30.4442" y2="53.8399" gradientUnits="userSpaceOnUse">
<stop stop-color="#16C062"/>
<stop offset="1" stop-color="#3EACFC"/>
</linearGradient>
</defs>
</svg>
