<svg width="13" height="10" viewBox="0 0 13 10" fill="none" xmlns="http://www.w3.org/2000/svg">
<g clip-path="url(#clip0_246_14131)">
<path d="M6.51619 9.54395C6.77565 9.80206 7.19402 9.80485 7.45691 9.55023L11.5538 5.5822C11.852 5.28397 11.852 4.80044 11.5538 4.5022L7.5937 0.542151C7.29654 0.244998 6.81388 0.24788 6.5203 0.548562C6.23156 0.844281 6.23447 1.31726 6.52682 1.6094L9.2115 4.2922L1.41406 4.2922C0.99985 4.2922 0.664062 4.62799 0.664062 5.0422C0.664062 5.45642 0.999849 5.7922 1.41406 5.7922L9.21075 5.7922L6.52886 8.47284C6.2344 8.76717 6.22877 9.24274 6.51619 9.54395Z" fill="#CCCCCC"/>
</g>
<defs>
<clipPath id="clip0_246_14131">
<rect width="12" height="10" fill="white" transform="translate(12.0938 10.0088) rotate(-180)"/>
</clipPath>
</defs>
</svg>
