<svg width="619" height="528" viewBox="0 0 619 528" fill="none" xmlns="http://www.w3.org/2000/svg">
<rect x="423" y="0.376953" width="112" height="44" rx="12" fill="url(#paint0_linear_482_20102)" fill-opacity="0.2"/>
<path d="M448.52 30.377V16.961H443.576V14.921H456.056V16.961H451.136V30.377H448.52ZM458.153 30.377V14.921H468.929V16.961H460.769V21.641H468.041V23.657H460.769V28.361H468.929V30.377H458.153ZM471.348 30.377V14.921H473.652L481.716 26.297V14.921H484.308V30.377H482.004L473.964 19.025V30.377H471.348ZM487.356 30.377V14.921H498.132V16.961H489.972V21.641H497.244V23.657H489.972V28.361H498.132V30.377H487.356ZM499.462 30.377L504.982 22.673L499.582 14.921H502.606L506.542 20.657L510.478 14.921H513.526L508.102 22.673L513.622 30.377H510.55L506.542 24.713L502.534 30.377H499.462Z" fill="white"/>
<path d="M60.52 181.377L56.032 170.001H58.744L61.936 178.833L65.128 170.001H67.816L63.352 181.377H60.52ZM74.8345 181.617C72.8505 181.617 71.3145 181.129 70.2265 180.153C69.1385 179.177 68.5945 177.681 68.5945 175.665C68.5945 173.841 69.0585 172.401 69.9865 171.345C70.9145 170.289 72.3225 169.761 74.2105 169.761C75.9385 169.761 77.2345 170.217 78.0985 171.129C78.9785 172.025 79.4185 173.185 79.4185 174.609V176.721H71.0905C71.2185 177.825 71.6185 178.585 72.2905 179.001C72.9625 179.417 73.9865 179.625 75.3625 179.625C75.9385 179.625 76.5305 179.569 77.1385 179.457C77.7465 179.345 78.2745 179.201 78.7225 179.025V180.945C78.2105 181.169 77.6185 181.337 76.9465 181.449C76.2905 181.561 75.5865 181.617 74.8345 181.617ZM71.0905 175.017H77.1145V174.225C77.1145 173.441 76.8985 172.833 76.4665 172.401C76.0345 171.953 75.3065 171.729 74.2825 171.729C73.0665 171.729 72.2265 171.993 71.7625 172.521C71.3145 173.049 71.0905 173.881 71.0905 175.017ZM83.6997 181.377V167.961H78.7557V165.921H91.2357V167.961H86.3157V181.377H83.6997ZM93.3323 181.377V165.921H104.108V167.961H95.9483V172.641H103.22V174.657H95.9483V179.361H104.108V181.377H93.3323ZM106.528 181.377V165.921H108.832L116.896 177.297V165.921H119.488V181.377H117.184L109.144 170.025V181.377H106.528ZM122.535 181.377V165.921H133.311V167.961H125.151V172.641H132.423V174.657H125.151V179.361H133.311V181.377H122.535ZM134.641 181.377L140.161 173.673L134.761 165.921H137.785L141.721 171.657L145.657 165.921H148.705L143.281 173.673L148.801 181.377H145.729L141.721 175.713L137.713 181.377H134.641Z" fill="url(#paint1_linear_482_20102)"/>
<path d="M541.96 354.377L536.056 338.921H538.768L543.4 351.569L548.032 338.921H550.744L544.888 354.377H541.96ZM556.92 354.617C554.936 354.617 553.4 354.129 552.312 353.153C551.224 352.177 550.68 350.681 550.68 348.665C550.68 346.841 551.144 345.401 552.072 344.345C553 343.289 554.408 342.761 556.296 342.761C558.024 342.761 559.32 343.217 560.184 344.129C561.064 345.025 561.504 346.185 561.504 347.609V349.721H553.176C553.304 350.825 553.704 351.585 554.376 352.001C555.048 352.417 556.072 352.625 557.448 352.625C558.024 352.625 558.616 352.569 559.224 352.457C559.832 352.345 560.36 352.201 560.808 352.025V353.945C560.296 354.169 559.704 354.337 559.032 354.449C558.376 354.561 557.672 354.617 556.92 354.617ZM553.176 348.017H559.2V347.225C559.2 346.441 558.984 345.833 558.552 345.401C558.12 344.953 557.392 344.729 556.368 344.729C555.152 344.729 554.312 344.993 553.848 345.521C553.4 346.049 553.176 346.881 553.176 348.017ZM573.494 354.617C573.03 354.617 572.518 354.585 571.958 354.521C571.398 354.473 570.862 354.393 570.35 354.281C569.854 354.169 569.438 354.049 569.102 353.921V351.641C569.742 351.897 570.398 352.089 571.07 352.217C571.758 352.329 572.446 352.385 573.134 352.385C574.382 352.385 575.31 352.201 575.918 351.833C576.526 351.465 576.83 350.817 576.83 349.889C576.83 349.057 576.55 348.457 575.99 348.089C575.446 347.721 574.662 347.537 573.638 347.537H571.31L571.526 345.593H573.47C575.502 345.593 576.518 344.793 576.518 343.193C576.518 342.409 576.246 341.833 575.702 341.465C575.174 341.097 574.318 340.913 573.134 340.913C572.478 340.913 571.814 340.977 571.142 341.105C570.486 341.233 569.902 341.409 569.39 341.633V339.401C569.87 339.209 570.494 339.041 571.262 338.897C572.03 338.753 572.79 338.681 573.542 338.681C575.43 338.681 576.83 339.081 577.742 339.881C578.67 340.681 579.134 341.705 579.134 342.953C579.134 343.721 578.942 344.441 578.558 345.113C578.19 345.785 577.606 346.265 576.806 346.553C577.734 346.793 578.406 347.225 578.822 347.849C579.254 348.473 579.47 349.209 579.47 350.057C579.47 351.609 578.926 352.761 577.838 353.513C576.75 354.249 575.302 354.617 573.494 354.617ZM581.548 357.257L582.268 352.721H584.548L583.444 357.257H581.548ZM591.002 354.617C590.538 354.617 590.026 354.585 589.466 354.521C588.906 354.473 588.37 354.393 587.858 354.281C587.362 354.169 586.946 354.049 586.61 353.921V351.641C587.25 351.897 587.906 352.089 588.578 352.217C589.266 352.329 589.954 352.385 590.642 352.385C591.89 352.385 592.818 352.201 593.426 351.833C594.034 351.465 594.338 350.817 594.338 349.889C594.338 349.057 594.058 348.457 593.498 348.089C592.954 347.721 592.17 347.537 591.146 347.537H588.818L589.034 345.593H590.978C593.01 345.593 594.026 344.793 594.026 343.193C594.026 342.409 593.754 341.833 593.21 341.465C592.682 341.097 591.826 340.913 590.642 340.913C589.986 340.913 589.322 340.977 588.65 341.105C587.994 341.233 587.41 341.409 586.898 341.633V339.401C587.378 339.209 588.002 339.041 588.77 338.897C589.538 338.753 590.298 338.681 591.05 338.681C592.938 338.681 594.338 339.081 595.25 339.881C596.178 340.681 596.642 341.705 596.642 342.953C596.642 343.721 596.45 344.441 596.066 345.113C595.698 345.785 595.114 346.265 594.314 346.553C595.242 346.793 595.914 347.225 596.33 347.849C596.762 348.473 596.978 349.209 596.978 350.057C596.978 351.609 596.434 352.761 595.346 353.513C594.258 354.249 592.81 354.617 591.002 354.617Z" fill="url(#paint2_linear_482_20102)"/>
<path d="M21.512 401.377V385.921H24.128V392.641H31.568V385.921H34.184V401.377H31.568V394.657H24.128V401.377H21.512ZM37.5658 387.625V385.465H40.4218V387.625H37.5658ZM37.7818 401.377V391.993H36.0538L36.2938 390.001H40.3978V401.377H37.7818ZM48.0575 405.601C47.2095 405.601 46.3615 405.545 45.5135 405.433C44.6655 405.337 43.9455 405.185 43.3535 404.977V402.961C43.9935 403.169 44.7295 403.329 45.5615 403.441C46.3935 403.553 47.1855 403.609 47.9375 403.609C49.0895 403.609 49.9295 403.545 50.4575 403.417C50.9855 403.289 51.2495 403.001 51.2495 402.553C51.2495 402.217 51.1215 401.977 50.8655 401.833C50.6095 401.705 50.1215 401.641 49.4015 401.641H46.3295C44.2655 401.641 43.2335 400.913 43.2335 399.457C43.2335 398.993 43.3695 398.561 43.6415 398.161C43.9135 397.761 44.3455 397.457 44.9375 397.249C44.2815 396.929 43.7935 396.489 43.4735 395.929C43.1695 395.369 43.0175 394.697 43.0175 393.913C43.0175 392.457 43.4495 391.401 44.3135 390.745C45.1935 390.089 46.5055 389.761 48.2495 389.761C48.6175 389.761 49.0015 389.793 49.4015 389.857C49.8015 389.905 50.1135 389.953 50.3375 390.001H54.5135L54.4415 391.705H52.5215C52.8255 391.961 53.0495 392.281 53.1935 392.665C53.3375 393.049 53.4095 393.465 53.4095 393.913C53.4095 395.129 53.0415 396.089 52.3055 396.793C51.5695 397.481 50.4575 397.825 48.9695 397.825C48.7135 397.825 48.4735 397.817 48.2495 397.801C48.0415 397.769 47.8095 397.737 47.5535 397.705C47.0735 397.753 46.6415 397.881 46.2575 398.089C45.8735 398.297 45.6815 398.577 45.6815 398.929C45.6815 399.169 45.7775 399.345 45.9695 399.457C46.1615 399.553 46.4815 399.601 46.9295 399.601H50.1215C51.2575 399.601 52.1295 399.849 52.7375 400.345C53.3615 400.825 53.6735 401.529 53.6735 402.457C53.6735 403.577 53.1855 404.377 52.2095 404.857C51.2495 405.353 49.8655 405.601 48.0575 405.601ZM48.2495 396.169C49.2895 396.169 50.0095 395.993 50.4095 395.641C50.8255 395.289 51.0335 394.689 51.0335 393.841C51.0335 392.993 50.8255 392.377 50.4095 391.993C50.0095 391.609 49.2895 391.417 48.2495 391.417C47.2735 391.417 46.5615 391.601 46.1135 391.969C45.6655 392.337 45.4415 392.961 45.4415 393.841C45.4415 394.657 45.6495 395.249 46.0655 395.617C46.4975 395.985 47.2255 396.169 48.2495 396.169ZM56.7386 401.377V385.201H59.3546V391.105C59.8506 390.705 60.4426 390.385 61.1306 390.145C61.8186 389.889 62.5946 389.761 63.4586 389.761C64.8986 389.761 65.9626 390.105 66.6506 390.793C67.3386 391.481 67.6826 392.553 67.6826 394.009V401.377H65.0906V394.129C65.0906 393.249 64.8986 392.633 64.5146 392.281C64.1466 391.929 63.4986 391.753 62.5706 391.753C61.9946 391.753 61.4106 391.881 60.8186 392.137C60.2266 392.377 59.7386 392.697 59.3546 393.097V401.377H56.7386ZM75.6888 401.377L81.5928 385.921H84.5208L90.3768 401.377H87.6888L86.1528 397.393H79.9368L78.4008 401.377H75.6888ZM80.3448 395.377H85.7208L83.0328 388.297L80.3448 395.377ZM92.9495 401.377V385.921H99.8375C101.022 385.921 101.998 386.145 102.766 386.593C103.534 387.041 104.102 387.657 104.47 388.441C104.838 389.209 105.022 390.089 105.022 391.081C105.022 392.617 104.542 393.849 103.582 394.777C102.638 395.705 101.358 396.169 99.7415 396.169H95.5655V401.377H92.9495ZM95.5655 394.105H99.2615C100.302 394.105 101.086 393.833 101.614 393.289C102.142 392.745 102.406 392.009 102.406 391.081C102.406 390.089 102.15 389.321 101.638 388.777C101.142 388.233 100.39 387.961 99.3815 387.961H95.5655V394.105ZM107.106 401.377V385.921H114.21C115.938 385.921 117.194 386.369 117.978 387.265C118.778 388.145 119.178 389.345 119.178 390.865C119.178 391.953 118.906 392.881 118.362 393.649C117.818 394.417 117.034 394.953 116.01 395.257C116.298 395.465 116.522 395.689 116.682 395.929C116.842 396.169 117.002 396.489 117.162 396.889L119.106 401.377H116.418L114.522 397.057C114.346 396.641 114.13 396.345 113.874 396.169C113.634 395.993 113.218 395.905 112.626 395.905H109.722V401.377H107.106ZM109.722 393.793H113.514C114.458 393.793 115.202 393.561 115.746 393.097C116.29 392.633 116.562 391.889 116.562 390.865C116.562 388.929 115.626 387.961 113.754 387.961H109.722V393.793ZM124.682 392.737C123.546 392.737 122.69 392.425 122.114 391.801C121.554 391.161 121.274 390.353 121.274 389.377C121.274 388.241 121.554 387.345 122.114 386.689C122.69 386.017 123.546 385.681 124.682 385.681C125.818 385.681 126.666 386.017 127.226 386.689C127.786 387.345 128.066 388.241 128.066 389.377C128.066 390.353 127.786 391.161 127.226 391.801C126.666 392.425 125.818 392.737 124.682 392.737ZM123.626 401.377L131.81 385.921H134.258L126.074 401.377H123.626ZM124.682 391.153C125.306 391.153 125.754 390.993 126.026 390.673C126.298 390.353 126.434 389.905 126.434 389.329C126.434 388.625 126.29 388.113 126.002 387.793C125.73 387.457 125.29 387.289 124.682 387.289C124.074 387.289 123.626 387.457 123.338 387.793C123.066 388.113 122.93 388.625 122.93 389.329C122.93 389.905 123.066 390.353 123.338 390.673C123.61 390.993 124.058 391.153 124.682 391.153ZM133.274 401.617C132.138 401.617 131.282 401.305 130.706 400.681C130.146 400.041 129.866 399.233 129.866 398.257C129.866 397.121 130.146 396.225 130.706 395.569C131.282 394.897 132.138 394.561 133.274 394.561C134.41 394.561 135.258 394.897 135.818 395.569C136.378 396.225 136.658 397.121 136.658 398.257C136.658 399.233 136.378 400.041 135.818 400.681C135.258 401.305 134.41 401.617 133.274 401.617ZM133.274 400.033C133.898 400.033 134.346 399.873 134.618 399.553C134.89 399.233 135.026 398.785 135.026 398.209C135.026 397.505 134.882 396.993 134.594 396.673C134.322 396.337 133.882 396.169 133.274 396.169C132.666 396.169 132.218 396.337 131.93 396.673C131.658 396.993 131.522 397.505 131.522 398.209C131.522 398.785 131.658 399.233 131.93 399.553C132.202 399.873 132.65 400.033 133.274 400.033Z" fill="url(#paint3_linear_482_20102)"/>
<path d="M266.76 513.617C264.216 513.617 262.288 512.921 260.976 511.529C259.68 510.137 259.032 508.257 259.032 505.889C259.032 504.193 259.304 502.737 259.848 501.521C260.408 500.289 261.256 499.345 262.392 498.689C263.528 498.017 264.976 497.681 266.736 497.681C267.632 497.681 268.448 497.753 269.184 497.897C269.936 498.025 270.632 498.201 271.272 498.425V500.705C270.632 500.449 269.944 500.257 269.208 500.129C268.488 499.985 267.728 499.913 266.928 499.913C265.008 499.913 263.648 500.425 262.848 501.449C262.064 502.473 261.672 503.953 261.672 505.889C261.672 507.697 262.104 509.073 262.968 510.017C263.832 510.945 265.168 511.409 266.976 511.409C267.712 511.409 268.448 511.353 269.184 511.241C269.936 511.113 270.64 510.921 271.296 510.665V512.969C270.656 513.177 269.96 513.337 269.208 513.449C268.472 513.561 267.656 513.617 266.76 513.617ZM277.384 513.617C276.664 513.617 275.992 513.489 275.368 513.233C274.76 512.977 274.272 512.593 273.904 512.081C273.536 511.553 273.352 510.905 273.352 510.137C273.352 509.049 273.72 508.177 274.456 507.521C275.208 506.849 276.36 506.513 277.912 506.513H281.56V506.009C281.56 505.465 281.472 505.033 281.296 504.713C281.136 504.393 280.832 504.161 280.384 504.017C279.952 503.873 279.312 503.801 278.464 503.801C277.12 503.801 275.864 504.001 274.696 504.401V502.457C275.208 502.249 275.832 502.081 276.568 501.953C277.304 501.825 278.096 501.761 278.944 501.761C280.608 501.761 281.872 502.097 282.736 502.769C283.616 503.441 284.056 504.537 284.056 506.057V513.377H281.824L281.656 512.225C281.192 512.673 280.616 513.017 279.928 513.257C279.256 513.497 278.408 513.617 277.384 513.617ZM278.08 511.745C278.864 511.745 279.544 511.617 280.12 511.361C280.712 511.089 281.192 510.729 281.56 510.281V508.289H277.96C277.192 508.289 276.632 508.441 276.28 508.745C275.944 509.033 275.776 509.481 275.776 510.089C275.776 510.681 275.976 511.105 276.376 511.361C276.776 511.617 277.344 511.745 278.08 511.745ZM286.957 518.561V502.001H289.213L289.357 503.129C289.869 502.665 290.429 502.321 291.037 502.097C291.645 501.873 292.365 501.761 293.197 501.761C294.829 501.761 296.101 502.209 297.013 503.105C297.925 503.985 298.381 505.449 298.381 507.497C298.381 509.545 297.909 511.081 296.965 512.105C296.021 513.113 294.733 513.617 293.101 513.617C291.725 513.617 290.549 513.297 289.573 512.657V518.561H286.957ZM292.429 511.649C294.637 511.649 295.741 510.257 295.741 507.473C295.741 506.129 295.493 505.177 294.997 504.617C294.501 504.041 293.669 503.753 292.501 503.753C291.333 503.753 290.357 504.153 289.573 504.953V510.641C289.941 510.945 290.349 511.193 290.797 511.385C291.261 511.561 291.805 511.649 292.429 511.649ZM301.417 499.625V497.465H304.273V499.625H301.417ZM301.633 513.377V503.993H299.905L300.145 502.001H304.249V513.377H301.633ZM311.645 513.617C310.429 513.617 309.517 513.297 308.909 512.657C308.317 512.001 308.021 511.113 308.021 509.993V504.041H306.341V502.001H308.021V499.385L310.613 498.593V502.001H313.637L313.469 504.041H310.613V509.849C310.613 510.505 310.765 510.969 311.069 511.241C311.373 511.497 311.869 511.625 312.557 511.625C312.989 511.625 313.445 511.545 313.925 511.385V513.233C313.301 513.489 312.541 513.617 311.645 513.617ZM319.478 513.617C318.758 513.617 318.086 513.489 317.462 513.233C316.854 512.977 316.366 512.593 315.998 512.081C315.63 511.553 315.446 510.905 315.446 510.137C315.446 509.049 315.814 508.177 316.55 507.521C317.302 506.849 318.454 506.513 320.006 506.513H323.654V506.009C323.654 505.465 323.566 505.033 323.39 504.713C323.23 504.393 322.926 504.161 322.478 504.017C322.046 503.873 321.406 503.801 320.558 503.801C319.214 503.801 317.958 504.001 316.79 504.401V502.457C317.302 502.249 317.926 502.081 318.662 501.953C319.398 501.825 320.19 501.761 321.038 501.761C322.702 501.761 323.966 502.097 324.83 502.769C325.71 503.441 326.15 504.537 326.15 506.057V513.377H323.918L323.75 512.225C323.286 512.673 322.71 513.017 322.022 513.257C321.35 513.497 320.502 513.617 319.478 513.617ZM320.174 511.745C320.958 511.745 321.638 511.617 322.214 511.361C322.806 511.089 323.286 510.729 323.654 510.281V508.289H320.054C319.286 508.289 318.726 508.441 318.374 508.745C318.038 509.033 317.87 509.481 317.87 510.089C317.87 510.681 318.07 511.105 318.47 511.361C318.87 511.617 319.438 511.745 320.174 511.745ZM331.883 513.617C330.955 513.617 330.251 513.393 329.771 512.945C329.291 512.481 329.051 511.721 329.051 510.665V497.201H331.667V510.425C331.667 510.873 331.747 511.177 331.907 511.337C332.067 511.497 332.307 511.577 332.627 511.577C333.011 511.577 333.379 511.529 333.731 511.433V513.329C333.427 513.441 333.131 513.513 332.843 513.545C332.571 513.593 332.251 513.617 331.883 513.617ZM341.309 513.377V497.921H352.085V499.961H343.925V504.641H351.197V506.657H343.925V511.361H352.085V513.377H341.309ZM355.2 513.377V504.041H353.544V502.001H355.2V500.609C355.2 499.473 355.512 498.561 356.136 497.873C356.776 497.169 357.72 496.817 358.968 496.817C359.432 496.817 359.856 496.857 360.24 496.937C360.624 497.001 360.976 497.097 361.296 497.225V499.097C360.8 498.921 360.296 498.833 359.784 498.833C359.032 498.833 358.512 498.969 358.224 499.241C357.936 499.513 357.792 499.977 357.792 500.633V502.001H360.768L360.648 504.041H357.792V513.377H355.2ZM362.888 513.377V504.041H361.232V502.001H362.888V500.825C362.888 500.041 363.072 499.353 363.44 498.761C363.824 498.153 364.352 497.681 365.024 497.345C365.712 496.993 366.512 496.817 367.424 496.817C367.984 496.817 368.512 496.857 369.008 496.937C369.504 497.001 369.912 497.097 370.232 497.225V499.169C370.024 499.073 369.72 499.001 369.32 498.953C368.92 498.905 368.544 498.881 368.192 498.881C367.264 498.881 366.576 499.041 366.128 499.361C365.696 499.681 365.48 500.185 365.48 500.873V502.001H371.888V513.377H369.272V504.041H365.48V513.377H362.888ZM380.51 513.617C378.51 513.617 376.998 513.113 375.974 512.105C374.95 511.081 374.438 509.609 374.438 507.689C374.438 505.689 374.998 504.201 376.118 503.225C377.254 502.249 378.766 501.761 380.654 501.761C381.438 501.761 382.094 501.817 382.622 501.929C383.166 502.041 383.686 502.217 384.182 502.457V504.401C383.35 503.985 382.342 503.777 381.158 503.777C379.846 503.777 378.838 504.073 378.134 504.665C377.43 505.241 377.078 506.249 377.078 507.689C377.078 509.049 377.39 510.049 378.014 510.689C378.638 511.313 379.67 511.625 381.11 511.625C382.246 511.625 383.278 511.409 384.206 510.977V512.969C383.678 513.177 383.11 513.337 382.502 513.449C381.91 513.561 381.246 513.617 380.51 513.617ZM387.245 499.625V497.465H390.101V499.625H387.245ZM387.461 513.377V503.993H385.733L385.973 502.001H390.077V513.377H387.461ZM398.889 513.617C396.905 513.617 395.369 513.129 394.281 512.153C393.193 511.177 392.649 509.681 392.649 507.665C392.649 505.841 393.113 504.401 394.041 503.345C394.969 502.289 396.377 501.761 398.265 501.761C399.993 501.761 401.289 502.217 402.153 503.129C403.033 504.025 403.473 505.185 403.473 506.609V508.721H395.145C395.273 509.825 395.673 510.585 396.345 511.001C397.017 511.417 398.041 511.625 399.417 511.625C399.993 511.625 400.585 511.569 401.193 511.457C401.801 511.345 402.329 511.201 402.777 511.025V512.945C402.265 513.169 401.673 513.337 401.001 513.449C400.345 513.561 399.641 513.617 398.889 513.617ZM395.145 507.017H401.169V506.225C401.169 505.441 400.953 504.833 400.521 504.401C400.089 503.953 399.361 503.729 398.337 503.729C397.121 503.729 396.281 503.993 395.817 504.521C395.369 505.049 395.145 505.881 395.145 507.017ZM406.02 513.377V502.001H408.42L408.54 503.201C409.052 502.801 409.66 502.465 410.364 502.193C411.084 501.905 411.876 501.761 412.74 501.761C414.212 501.761 415.284 502.105 415.956 502.793C416.628 503.481 416.964 504.553 416.964 506.009V513.377H414.372V506.129C414.372 505.249 414.188 504.633 413.82 504.281C413.468 503.929 412.796 503.753 411.804 503.753C411.212 503.753 410.628 503.873 410.052 504.113C409.492 504.353 409.02 504.665 408.636 505.049V513.377H406.02ZM425.252 513.617C423.252 513.617 421.74 513.113 420.716 512.105C419.692 511.081 419.18 509.609 419.18 507.689C419.18 505.689 419.74 504.201 420.86 503.225C421.996 502.249 423.508 501.761 425.396 501.761C426.18 501.761 426.836 501.817 427.364 501.929C427.908 502.041 428.428 502.217 428.924 502.457V504.401C428.092 503.985 427.084 503.777 425.9 503.777C424.588 503.777 423.58 504.073 422.876 504.665C422.172 505.241 421.82 506.249 421.82 507.689C421.82 509.049 422.132 510.049 422.756 510.689C423.38 511.313 424.412 511.625 425.852 511.625C426.988 511.625 428.02 511.409 428.948 510.977V512.969C428.42 513.177 427.852 513.337 427.244 513.449C426.652 513.561 425.988 513.617 425.252 513.617ZM432.986 517.601C432.122 517.601 431.386 517.489 430.778 517.265V515.321C431.05 515.417 431.298 515.481 431.522 515.513C431.762 515.545 432.002 515.561 432.242 515.561C432.738 515.561 433.138 515.481 433.442 515.321C433.746 515.161 434.01 514.905 434.234 514.553C434.474 514.217 434.73 513.777 435.002 513.233L429.938 502.001H432.65L436.298 510.449L439.994 502.001H442.682L438.05 512.729C437.65 513.689 437.218 514.529 436.754 515.249C436.306 515.985 435.778 516.561 435.17 516.977C434.578 517.393 433.85 517.601 432.986 517.601Z" fill="url(#paint4_linear_482_20102)"/>
<path d="M409.955 143.331L483.087 307.432L518.049 240.924C520.075 237.363 520.304 233.078 518.668 229.328L454.547 81.3798C452.165 75.9192 445.825 72.3997 439.852 73.252L277.677 96.3917C269.707 97.4689 259.707 102.392 254.707 108.956L211.374 171.316L409.955 143.331Z" stroke="url(#paint5_linear_482_20102)" stroke-width="4"/>
<path d="M393.817 325.427L359.955 258.674L400.512 186.995L468.296 336.373C470.705 341.822 467.006 350.038 462.284 353.739L338.042 451.773C334.799 454.315 330.54 455.227 326.518 454.241L253.225 433.581L393.817 325.427Z" stroke="url(#paint6_linear_482_20102)" stroke-width="4"/>
<path d="M261.868 253.047L336.659 245.894L377.216 174.215L213.219 196.45L213.215 196.451C204.25 198.012 204.247 198.012 192.583 199.653L149.25 265.295L195.916 260.372L182.112 366.237C181.624 370.29 183.077 374.336 186.045 377.185L242.459 427.676L261.868 253.047Z" stroke="url(#paint7_linear_482_20102)" stroke-width="4"/>
<defs>
<linearGradient id="paint0_linear_482_20102" x1="511.81" y1="0.377691" x2="500.415" y2="52.0633" gradientUnits="userSpaceOnUse">
<stop stop-color="#16C062"/>
<stop offset="1" stop-color="#3EACFC"/>
</linearGradient>
<linearGradient id="paint1_linear_482_20102" x1="130.33" y1="155.378" x2="121.308" y2="197.803" gradientUnits="userSpaceOnUse">
<stop stop-color="#16C062"/>
<stop offset="1" stop-color="#3EACFC"/>
</linearGradient>
<linearGradient id="paint2_linear_482_20102" x1="585.749" y1="328.378" x2="573.019" y2="368.703" gradientUnits="userSpaceOnUse">
<stop stop-color="#16C062"/>
<stop offset="1" stop-color="#3EACFC"/>
</linearGradient>
<linearGradient id="paint3_linear_482_20102" x1="113.568" y1="375.378" x2="106.192" y2="418.458" gradientUnits="userSpaceOnUse">
<stop stop-color="#16C062"/>
<stop offset="1" stop-color="#3EACFC"/>
</linearGradient>
<linearGradient id="paint4_linear_482_20102" x1="405.488" y1="487.378" x2="400.728" y2="531.204" gradientUnits="userSpaceOnUse">
<stop stop-color="#16C062"/>
<stop offset="1" stop-color="#3EACFC"/>
</linearGradient>
<linearGradient id="paint5_linear_482_20102" x1="443.036" y1="73.1314" x2="239.467" y2="425.426" gradientUnits="userSpaceOnUse">
<stop stop-color="#16C062"/>
<stop offset="1" stop-color="#3EACFC"/>
</linearGradient>
<linearGradient id="paint6_linear_482_20102" x1="443.036" y1="73.1314" x2="239.467" y2="425.426" gradientUnits="userSpaceOnUse">
<stop stop-color="#16C062"/>
<stop offset="1" stop-color="#3EACFC"/>
</linearGradient>
<linearGradient id="paint7_linear_482_20102" x1="443.036" y1="73.1314" x2="239.467" y2="425.426" gradientUnits="userSpaceOnUse">
<stop stop-color="#16C062"/>
<stop offset="1" stop-color="#3EACFC"/>
</linearGradient>
</defs>
</svg>
