<svg width="14" height="14" viewBox="0 0 14 14" fill="none" xmlns="http://www.w3.org/2000/svg">
<path d="M2.27894 7.1315C2.70354 6.89455 3.20078 6.82303 3.67495 6.9307M4.45901 4.40641C4.18824 3.99822 4.07602 3.50513 4.14347 3.01996M6.6582 1.00244C6.32307 2.02906 6.36717 3.14181 6.7825 4.13868M11.6494 12.9355L5.26219 10.5546C5.07312 10.4878 4.90389 10.3746 4.77008 10.2252C4.63627 10.0759 4.54217 9.8953 4.49646 9.70007C4.45075 9.50484 4.45489 9.30125 4.50849 9.10804C4.5621 8.91482 4.66346 8.7382 4.80323 8.59444L8.80958 4.58808C8.95758 4.44937 9.1382 4.35027 9.3347 4.29997C9.5312 4.24967 9.73722 4.24979 9.93366 4.30033C10.1301 4.35087 10.3106 4.45019 10.4584 4.58908C10.6063 4.72797 10.7166 4.90194 10.7793 5.09485L13.1506 11.4821C13.2165 11.689 13.2233 11.9102 13.1702 12.1208C13.1172 12.3314 13.0065 12.523 12.8504 12.674C12.6944 12.8251 12.4993 12.9296 12.2872 12.9757C12.075 13.0219 11.8541 13.008 11.6494 12.9355ZM1.27496 3.92832C1.40176 3.92832 1.52336 3.87795 1.61302 3.7883C1.70268 3.69864 1.75305 3.57703 1.75305 3.45024C1.75305 3.32344 1.70268 3.20184 1.61302 3.11218C1.52336 3.02252 1.40176 2.97215 1.27496 2.97215C1.14816 2.97215 1.02656 3.02252 0.936903 3.11218C0.847245 3.20184 0.796875 3.32344 0.796875 3.45024C0.796875 3.57703 0.847245 3.69864 0.936903 3.7883C1.02656 3.87795 1.14816 3.92832 1.27496 3.92832Z" stroke="url(#paint0_linear_2487_678)" stroke-linecap="round" stroke-linejoin="round"/>
<defs>
<linearGradient id="paint0_linear_2487_678" x1="10.6363" y1="1.00264" x2="4.43968" y2="12.421" gradientUnits="userSpaceOnUse">
<stop stop-color="#16C062"/>
<stop offset="1" stop-color="#3EACFC"/>
</linearGradient>
</defs>
</svg>
