<svg width="17" height="17" viewBox="0 0 17 17" fill="none" xmlns="http://www.w3.org/2000/svg">
<path d="M5.21484 7.05925C5.21484 6.5877 5.40217 6.13545 5.73561 5.80201C6.06905 5.46857 6.52129 5.28125 6.99284 5.28125H12.7702C13.0037 5.28125 13.2349 5.32724 13.4506 5.41659C13.6663 5.50595 13.8623 5.63691 14.0274 5.80201C14.1925 5.96712 14.3235 6.16312 14.4128 6.37884C14.5022 6.59456 14.5482 6.82576 14.5482 7.05925V12.8366C14.5482 13.0701 14.5022 13.3013 14.4128 13.517C14.3235 13.7327 14.1925 13.9287 14.0274 14.0938C13.8623 14.2589 13.6663 14.3899 13.4506 14.4792C13.2349 14.5686 13.0037 14.6146 12.7702 14.6146H6.99284C6.75935 14.6146 6.52815 14.5686 6.31243 14.4792C6.09672 14.3899 5.90071 14.2589 5.73561 14.0938C5.57051 13.9287 5.43954 13.7327 5.35019 13.517C5.26083 13.3013 5.21484 13.0701 5.21484 12.8366V7.05925Z" stroke="white" stroke-linecap="round" stroke-linejoin="round"/>
<path d="M3.22154 11.7723C3.01687 11.656 2.84664 11.4876 2.72814 11.2842C2.60964 11.0808 2.5471 10.8497 2.54688 10.6143V3.94759C2.54688 3.21426 3.14688 2.61426 3.88021 2.61426H10.5469C11.0469 2.61426 11.3189 2.87092 11.5469 3.28092" stroke="white" stroke-linecap="round" stroke-linejoin="round"/>
</svg>
