<svg width="19" height="19" viewBox="0 0 19 19" fill="none" xmlns="http://www.w3.org/2000/svg">
<path d="M7.375 15.7803H5.125C4.32935 15.7803 3.56629 15.4642 3.00368 14.9016C2.44107 14.339 2.125 13.5759 2.125 12.7803V6.03027C2.125 5.23462 2.44107 4.47156 3.00368 3.90895C3.56629 3.34634 4.32935 3.03027 5.125 3.03027H13.375C14.1707 3.03027 14.9337 3.34634 15.4963 3.90895C16.0589 4.47156 16.375 5.23462 16.375 6.03027V8.28027M6.625 2.28027V3.78027M11.875 2.28027V3.78027M2.125 6.78027H16.375M14.5 12.5125L13.375 13.6375" stroke="url(#paint0_linear_246_16044)" stroke-width="1.2" stroke-linecap="round" stroke-linejoin="round"/>
<path d="M13.375 17.2803C15.4461 17.2803 17.125 15.6013 17.125 13.5303C17.125 11.4592 15.4461 9.78027 13.375 9.78027C11.3039 9.78027 9.625 11.4592 9.625 13.5303C9.625 15.6013 11.3039 17.2803 13.375 17.2803Z" stroke="url(#paint1_linear_246_16044)" stroke-width="1.2" stroke-linecap="round" stroke-linejoin="round"/>
<defs>
<linearGradient id="paint0_linear_246_16044" x1="13.4245" y1="2.2805" x2="6.53206" y2="15.2451" gradientUnits="userSpaceOnUse">
<stop stop-color="#16C062"/>
<stop offset="1" stop-color="#3EACFC"/>
</linearGradient>
<linearGradient id="paint1_linear_246_16044" x1="15.5721" y1="9.7804" x2="11.6295" y2="16.8062" gradientUnits="userSpaceOnUse">
<stop stop-color="#16C062"/>
<stop offset="1" stop-color="#3EACFC"/>
</linearGradient>
</defs>
</svg>
