<svg width="15" height="15" viewBox="0 0 15 15" fill="none" xmlns="http://www.w3.org/2000/svg">
<path d="M5.92578 0.9375C5.25518 0.939872 4.61273 1.20732 4.13854 1.68151C3.66435 2.15569 3.3969 2.79815 3.39453 3.46875C3.39453 3.91875 3.52222 4.33669 3.72866 4.6995C2.71559 5.29238 1.92247 6.13387 1.49609 7.125H1.42578C1.38864 7.12577 1.35172 7.11902 1.31725 7.10515C1.28278 7.09129 1.25147 7.0706 1.2252 7.04433C1.19893 7.01806 1.17824 6.98675 1.16438 6.95228C1.15052 6.91781 1.14377 6.88089 1.14453 6.84375C1.14453 6.74475 1.19516 6.666 1.26772 6.61538L0.616906 5.70131C0.432776 5.82964 0.282328 6.0005 0.17833 6.19938C0.0743335 6.39827 0.019859 6.61931 0.0195312 6.84375C0.0195313 7.53562 0.535906 8.10262 1.19741 8.21513C1.16872 8.412 1.14453 8.60831 1.14453 8.8125C1.14453 10.2142 1.88928 11.4292 2.97266 12.3281C2.83653 12.8906 2.90459 13.4902 3.34166 13.9279C3.66433 14.2478 4.10031 14.4273 4.55469 14.4273C5.00906 14.4273 5.44504 14.2478 5.76772 13.9279L5.97866 13.7169C6.41797 13.7979 6.85953 13.875 7.33203 13.875C7.80453 13.875 8.24609 13.7979 8.68541 13.7169L8.89634 13.9279C9.21902 14.2478 9.655 14.4273 10.1094 14.4273C10.5638 14.4273 10.9997 14.2478 11.3224 13.9279C11.7505 13.4992 11.8146 12.9171 11.6914 12.363C12.1425 11.9967 12.5287 11.5571 12.8338 11.0625H14.082V6.5625H12.799C12.5945 6.23109 12.3526 5.92438 12.0778 5.64844L12.3945 3.90806V3.1875H11.832C11.832 3.1875 10.4809 3.21 9.33566 4.06669C9.03485 3.98034 8.72975 3.90975 8.42159 3.85519C8.44447 3.72994 8.45628 3.60113 8.45703 3.46875C8.45703 2.07769 7.31684 0.9375 5.92578 0.9375ZM5.92578 2.0625C6.70766 2.0625 7.33203 2.68687 7.33203 3.46875C7.33203 3.5655 7.31459 3.65775 7.29659 3.75C6.38928 3.7545 5.53259 3.93 4.74847 4.22475C4.59849 4.00121 4.51876 3.73794 4.51953 3.46875C4.51953 2.68687 5.14391 2.0625 5.92578 2.0625ZM11.1289 4.41825C11.1379 4.416 11.1379 4.41994 11.1463 4.41825L10.9354 5.70075L10.8831 6L11.1289 6.21094C11.5041 6.53662 11.8142 6.93036 12.043 7.37138L12.201 7.6875H12.957V9.9375H12.201L12.043 10.2542C11.7685 10.7964 11.3353 11.2734 10.7773 11.6773L10.3729 11.9766L10.6193 12.4339C10.7532 12.66 10.729 12.939 10.531 13.137C10.4776 13.1927 10.4135 13.237 10.3425 13.2672C10.2716 13.2975 10.1952 13.3131 10.1181 13.3131C10.041 13.3131 9.96462 13.2975 9.89366 13.2672C9.82271 13.237 9.75861 13.1927 9.70522 13.137L9.30078 12.732L9.07241 12.5216L8.77316 12.5919C8.31641 12.6971 7.83097 12.75 7.33203 12.75C6.84706 12.7515 6.36346 12.6985 5.89034 12.5919L5.59222 12.5216L5.36328 12.7326L4.95884 13.1364C4.90544 13.1922 4.84131 13.2366 4.7703 13.2669C4.6993 13.2972 4.62289 13.3128 4.54569 13.3128C4.46848 13.3128 4.39208 13.2972 4.32107 13.2669C4.25007 13.2366 4.18593 13.1922 4.13253 13.1364C4.03995 13.0468 3.98078 12.9282 3.96482 12.8003C3.94886 12.6725 3.97708 12.543 4.04478 12.4333L4.29116 11.9766L3.88672 11.6779C2.86916 10.9388 2.26953 9.93075 2.26953 8.8125C2.26953 6.70762 4.46891 4.875 7.33203 4.875C8.02391 4.875 8.68316 4.9785 9.28334 5.17369L9.58203 5.27944L9.82841 5.0685C10.23 4.71019 10.7267 4.51725 11.1289 4.41825ZM10.707 7.6875C10.3977 7.6875 10.1445 7.94063 10.1445 8.25C10.1445 8.55937 10.3977 8.8125 10.707 8.8125C11.0164 8.8125 11.2695 8.55937 11.2695 8.25C11.2695 7.94063 11.0164 7.6875 10.707 7.6875Z" fill="url(#paint0_linear_130_28923)"/>
<defs>
<linearGradient id="paint0_linear_130_28923" x1="11.1703" y1="0.937726" x2="4.23524" y2="13.8207" gradientUnits="userSpaceOnUse">
<stop stop-color="#16C062"/>
<stop offset="1" stop-color="#3EACFC"/>
</linearGradient>
</defs>
</svg>
