<svg width="18" height="8" viewBox="0 0 18 8" fill="none" xmlns="http://www.w3.org/2000/svg">
<path d="M0.433617 4.44231C0.375413 4.38426 0.329235 4.31529 0.297727 4.23935C0.266218 4.16342 0.25 4.08202 0.25 3.99981C0.25 3.9176 0.266218 3.8362 0.297727 3.76027C0.329235 3.68434 0.375413 3.61537 0.433617 3.55731L2.93362 1.05731C2.99173 0.999203 3.06071 0.953108 3.13664 0.921659C3.21256 0.89021 3.29394 0.874023 3.37612 0.874023C3.4583 0.874023 3.53967 0.89021 3.6156 0.921659C3.69152 0.953108 3.76051 0.999203 3.81862 1.05731C3.87673 1.11542 3.92282 1.18441 3.95427 1.26033C3.98572 1.33626 4.00191 1.41763 4.00191 1.49981C4.00191 1.58199 3.98572 1.66337 3.95427 1.73929C3.92282 1.81522 3.87673 1.8842 3.81862 1.94231L2.38487 3.37481H15.6174L14.1836 1.94231C14.0663 1.82495 14.0003 1.66578 14.0003 1.49981C14.0003 1.33384 14.0663 1.17467 14.1836 1.05731C14.301 0.939955 14.4601 0.874023 14.6261 0.874023C14.7921 0.874023 14.9513 0.939955 15.0686 1.05731L17.5686 3.55731C17.6268 3.61537 17.673 3.68434 17.7045 3.76027C17.736 3.8362 17.7522 3.9176 17.7522 3.99981C17.7522 4.08202 17.736 4.16342 17.7045 4.23935C17.673 4.31529 17.6268 4.38426 17.5686 4.44231L15.0686 6.94231C14.9513 7.05967 14.7921 7.1256 14.6261 7.1256C14.4601 7.1256 14.301 7.05967 14.1836 6.94231C14.0663 6.82495 14.0003 6.66578 14.0003 6.49981C14.0003 6.33384 14.0663 6.17467 14.1836 6.05731L15.6174 4.62481H2.38487L3.81862 6.05731C3.93598 6.17467 4.00191 6.33384 4.00191 6.49981C4.00191 6.66578 3.93598 6.82495 3.81862 6.94231C3.70126 7.05967 3.54209 7.1256 3.37612 7.1256C3.21015 7.1256 3.05098 7.05967 2.93362 6.94231L0.433617 4.44231Z" fill="white"/>
</svg>
