<svg width="18" height="18" viewBox="0 0 18 18" fill="none" xmlns="http://www.w3.org/2000/svg">
<path d="M3.96991 4.50008C2.87838 5.71917 2.26726 7.29351 2.25042 8.92977C2.20893 12.6686 5.26155 15.743 9.00042 15.7501C12.734 15.7571 15.7504 12.7326 15.7504 9.00008C15.7504 5.32484 12.8131 2.3341 9.15862 2.25008C9.13805 2.24942 9.11756 2.25291 9.09837 2.26033C9.07918 2.26776 9.06168 2.27898 9.04691 2.29332C9.03215 2.30766 9.02042 2.32482 9.01244 2.34379C9.00445 2.36275 9.00036 2.38313 9.00042 2.40371V5.34383" stroke="url(#paint0_linear_2638_297)" stroke-linecap="round" stroke-linejoin="round"/>
<path d="M8.2038 9.79513L5.42645 5.82247C5.38803 5.76743 5.37021 5.70062 5.37611 5.63375C5.382 5.56689 5.41125 5.50423 5.45871 5.45676C5.50618 5.4093 5.56884 5.38005 5.6357 5.37415C5.70257 5.36825 5.76938 5.38608 5.82442 5.4245L9.79708 8.20185C10.0408 8.37734 10.2055 8.64171 10.2558 8.93777C10.3061 9.23382 10.2377 9.53776 10.0656 9.78384C9.89353 10.0299 9.63146 10.1983 9.33613 10.2527C9.0408 10.307 8.73595 10.243 8.48751 10.0743C8.37765 9.99815 8.28169 9.90373 8.2038 9.79513Z" fill="url(#paint1_linear_2638_297)"/>
<defs>
<linearGradient id="paint0_linear_2638_297" x1="12.9551" y1="2.25023" x2="5.85839" y2="14.8968" gradientUnits="userSpaceOnUse">
<stop stop-color="#16C062"/>
<stop offset="1" stop-color="#3EACFC"/>
</linearGradient>
<linearGradient id="paint1_linear_2638_297" x1="9.25799" y1="5.37313" x2="6.68246" y2="9.96118" gradientUnits="userSpaceOnUse">
<stop stop-color="#16C062"/>
<stop offset="1" stop-color="#3EACFC"/>
</linearGradient>
</defs>
</svg>
