<svg width="19" height="18" viewBox="0 0 19 18" fill="none" xmlns="http://www.w3.org/2000/svg">
<path d="M12.1133 2.0625H6.11328C5.31763 2.0625 4.55457 2.37857 3.99196 2.94118C3.42935 3.50379 3.11328 4.26685 3.11328 5.0625V12.9375C3.11328 13.7331 3.42935 14.4962 3.99196 15.0588C4.55457 15.6214 5.31763 15.9375 6.11328 15.9375H12.1133C12.9089 15.9375 13.672 15.6214 14.2346 15.0588C14.7972 14.4962 15.1133 13.7331 15.1133 12.9375V5.0625C15.1133 4.26685 14.7972 3.50379 14.2346 2.94118C13.672 2.37857 12.9089 2.0625 12.1133 2.0625Z" stroke="#EB5540" stroke-width="1.5" stroke-linecap="round" stroke-linejoin="round"/>
<path d="M5.73828 9.75H6.48828M8.73828 9.75H9.48828M11.7383 9.75H12.4883M5.73828 11.625H6.48828M8.73828 11.625H9.48828M11.7383 11.625H12.4883M5.73828 13.5H6.48828M8.73828 13.5H9.48828M11.7383 13.5H12.4883M12.1755 4.5H6.05103C5.67153 4.5 5.36328 4.836 5.36328 5.25V6.75C5.36328 7.164 5.67078 7.5 6.05103 7.5H12.1755C12.555 7.5 12.8633 7.164 12.8633 6.75V5.25C12.8633 4.836 12.5558 4.5 12.1755 4.5Z" stroke="#EB5540" stroke-width="1.5" stroke-linecap="round" stroke-linejoin="round"/>
</svg>
