<svg width="25" height="25" viewBox="0 0 25 25" fill="none" xmlns="http://www.w3.org/2000/svg">
<path fill-rule="evenodd" clip-rule="evenodd" d="M12.6252 3.03028C10.2602 3.02994 7.97567 3.88922 6.19714 5.44809C4.41862 7.00696 3.26732 9.15913 2.95769 11.5038C2.93858 11.6503 2.94853 11.7992 2.98696 11.9419C3.02539 12.0846 3.09155 12.2184 3.18167 12.3355C3.27179 12.4527 3.3841 12.5509 3.51219 12.6246C3.64028 12.6984 3.78163 12.7462 3.92819 12.7653C4.07474 12.7844 4.22363 12.7744 4.36634 12.736C4.50905 12.6976 4.64279 12.6314 4.75993 12.5413C4.87708 12.4512 4.97532 12.3389 5.04906 12.2108C5.12279 12.0827 5.17058 11.9413 5.18969 11.7948C5.37501 10.4017 5.94791 9.08876 6.84312 8.00547C7.73832 6.92217 8.91982 6.11213 10.253 5.66763C11.5862 5.22314 13.0174 5.16207 14.3836 5.49139C15.7498 5.82071 16.996 6.52718 17.9802 7.53028H16.0002C15.7018 7.53028 15.4157 7.64881 15.2047 7.85979C14.9937 8.07076 14.8752 8.35691 14.8752 8.65528C14.8752 8.95365 14.9937 9.2398 15.2047 9.45078C15.4157 9.66175 15.7018 9.78028 16.0002 9.78028H20.5002C20.7986 9.78028 21.0847 9.66175 21.2957 9.45078C21.5067 9.2398 21.6252 8.95365 21.6252 8.65528V4.15528C21.6252 3.85691 21.5067 3.57076 21.2957 3.35979C21.0847 3.14881 20.7986 3.03028 20.5002 3.03028C20.2018 3.03028 19.9157 3.14881 19.7047 3.35979C19.4937 3.57076 19.3752 3.85691 19.3752 4.15528V5.74528C17.5615 4.00057 15.1418 3.02732 12.6252 3.03028ZM4.75019 22.5303C4.45182 22.5303 4.16567 22.4118 3.95469 22.2008C3.74371 21.9898 3.62519 21.7036 3.62519 21.4053V16.9053C3.62519 16.6069 3.74371 16.3208 3.95469 16.1098C4.16567 15.8988 4.45182 15.7803 4.75019 15.7803H9.25019C9.54856 15.7803 9.8347 15.8988 10.0457 16.1098C10.2567 16.3208 10.3752 16.6069 10.3752 16.9053C10.3752 17.2036 10.2567 17.4898 10.0457 17.7008C9.8347 17.9118 9.54856 18.0303 9.25019 18.0303H7.27019C8.25435 19.0338 9.50067 19.7407 10.8671 20.0703C12.2335 20.3998 13.665 20.3389 14.9985 19.8944C16.3319 19.4498 17.5136 18.6396 18.4089 17.556C19.3042 16.4724 19.8771 15.1591 20.0622 13.7658C20.0782 13.6167 20.1237 13.4723 20.1963 13.3411C20.2688 13.21 20.3669 13.0946 20.4847 13.0018C20.6024 12.909 20.7376 12.8408 20.8821 12.8009C21.0266 12.7611 21.1777 12.7506 21.3263 12.77C21.475 12.7894 21.6183 12.8383 21.7478 12.9139C21.8772 12.9894 21.9903 13.0901 22.0804 13.21C22.1704 13.3299 22.2355 13.4665 22.272 13.612C22.3085 13.7574 22.3155 13.9086 22.2927 14.0568C22.0565 15.8436 21.3298 17.5301 20.1931 18.9289C19.0564 20.3277 17.5543 21.384 15.8536 21.9807C14.1528 22.5774 12.32 22.6911 10.5585 22.3091C8.79709 21.9271 7.17597 21.0644 5.87519 19.8168V21.4053C5.87519 21.7036 5.75666 21.9898 5.54568 22.2008C5.3347 22.4118 5.04856 22.5303 4.75019 22.5303Z" fill="url(#paint0_linear_246_16090)"/>
<defs>
<linearGradient id="paint0_linear_246_16090" x1="18.2977" y1="3.0306" x2="8.00754" y2="21.2333" gradientUnits="userSpaceOnUse">
<stop stop-color="#16C062"/>
<stop offset="1" stop-color="#3EACFC"/>
</linearGradient>
</defs>
</svg>
