<svg width="19" height="19" viewBox="0 0 19 19" fill="none" xmlns="http://www.w3.org/2000/svg">
<path d="M14.0499 15.5304C15.2911 14.2893 16.1928 12.7104 16.1928 10.8161C16.1928 8.9975 15.4704 7.25336 14.1844 5.9674C12.8984 4.68143 11.1543 3.95898 9.33566 3.95898C7.51703 3.95898 5.77289 4.68143 4.48693 5.9674C3.20096 7.25336 2.47852 8.9975 2.47852 10.8161C2.47852 12.7104 3.38023 14.2893 4.62137 15.5304M9.33566 10.8161L5.90709 7.38756" stroke="#EB5540" stroke-width="1.14286" stroke-linecap="round" stroke-linejoin="round"/>
<path d="M9.3365 12.1017C10.0466 12.1017 10.6222 11.5261 10.6222 10.816C10.6222 10.1059 10.0466 9.53027 9.3365 9.53027C8.62642 9.53027 8.05078 10.1059 8.05078 10.816C8.05078 11.5261 8.62642 12.1017 9.3365 12.1017Z" fill="#EB5540"/>
</svg>
