<svg width="18" height="18" viewBox="0 0 18 18" fill="none" xmlns="http://www.w3.org/2000/svg">
<path d="M4.27894 9.1315C4.70354 8.89455 5.20078 8.82303 5.67495 8.9307M6.45901 6.40641C6.18824 5.99822 6.07602 5.50513 6.14347 5.01996M8.6582 3.00244C8.32307 4.02906 8.36717 5.14181 8.7825 6.13868M13.6494 14.9355L7.26219 12.5546C7.07312 12.4878 6.90389 12.3746 6.77008 12.2252C6.63627 12.0759 6.54217 11.8953 6.49646 11.7001C6.45075 11.5048 6.45489 11.3012 6.50849 11.108C6.5621 10.9148 6.66346 10.7382 6.80323 10.5944L10.8096 6.58808C10.9576 6.44937 11.1382 6.35027 11.3347 6.29997C11.5312 6.24967 11.7372 6.24979 11.9337 6.30033C12.1301 6.35087 12.3106 6.45019 12.4584 6.58908C12.6063 6.72797 12.7166 6.90194 12.7793 7.09485L15.1506 13.4821C15.2165 13.689 15.2233 13.9102 15.1702 14.1208C15.1172 14.3314 15.0065 14.523 14.8504 14.674C14.6944 14.8251 14.4993 14.9296 14.2872 14.9757C14.075 15.0219 13.8541 15.008 13.6494 14.9355ZM3.27496 5.92832C3.40176 5.92832 3.52336 5.87795 3.61302 5.7883C3.70268 5.69864 3.75305 5.57703 3.75305 5.45024C3.75305 5.32344 3.70268 5.20184 3.61302 5.11218C3.52336 5.02252 3.40176 4.97215 3.27496 4.97215C3.14816 4.97215 3.02656 5.02252 2.9369 5.11218C2.84724 5.20184 2.79688 5.32344 2.79688 5.45024C2.79688 5.57703 2.84724 5.69864 2.9369 5.7883C3.02656 5.87795 3.14816 5.92832 3.27496 5.92832Z" stroke="url(#paint0_linear_2487_676)" stroke-linecap="round" stroke-linejoin="round"/>
<defs>
<linearGradient id="paint0_linear_2487_676" x1="12.6363" y1="3.00264" x2="6.43968" y2="14.421" gradientUnits="userSpaceOnUse">
<stop stop-color="#16C062"/>
<stop offset="1" stop-color="#3EACFC"/>
</linearGradient>
</defs>
</svg>
