<svg width="14" height="18" viewBox="0 0 14 18" fill="none" xmlns="http://www.w3.org/2000/svg">
<path d="M1.7513 16.1654V7.83203H11.7513V16.1654H1.7513ZM1.7513 6.16536C1.30928 6.16536 0.885353 6.34096 0.572792 6.65352C0.260232 6.96608 0.0846367 7.39 0.0846367 7.83203V16.1654C0.0846367 16.6074 0.260232 17.0313 0.572792 17.3439C0.885353 17.6564 1.30928 17.832 1.7513 17.832H11.7513C12.1933 17.832 12.6173 17.6564 12.9298 17.3439C13.2424 17.0313 13.418 16.6074 13.418 16.1654V7.83203C13.418 7.39 13.2424 6.96608 12.9298 6.65352C12.6173 6.34096 12.1933 6.16536 11.7513 6.16536H4.2513V4.4987C4.2513 3.83566 4.5147 3.19977 4.98354 2.73093C5.45238 2.26209 6.08826 1.9987 6.7513 1.9987C7.41434 1.9987 8.05023 2.26209 8.51907 2.73093C8.98791 3.19977 9.2513 3.83566 9.2513 4.4987H10.918C10.918 3.39363 10.479 2.33382 9.69758 1.55242C8.91618 0.771018 7.85637 0.332031 6.7513 0.332031C6.20413 0.332031 5.66231 0.439805 5.15679 0.6492C4.65127 0.858594 4.19194 1.16551 3.80503 1.55242C3.41811 1.93933 3.1112 2.39866 2.9018 2.90418C2.69241 3.40971 2.58464 3.95152 2.58464 4.4987V6.16536H1.7513ZM6.7513 13.6654C7.19333 13.6654 7.61725 13.4898 7.92981 13.1772C8.24237 12.8646 8.41797 12.4407 8.41797 11.9987C8.41797 11.5567 8.24237 11.1327 7.92981 10.8202C7.61725 10.5076 7.19333 10.332 6.7513 10.332C6.30928 10.332 5.88535 10.5076 5.57279 10.8202C5.26023 11.1327 5.08464 11.5567 5.08464 11.9987C5.08464 12.4407 5.26023 12.8646 5.57279 13.1772C5.88535 13.4898 6.30928 13.6654 6.7513 13.6654Z" fill="white"/>
</svg>
