<svg width="12" height="17" viewBox="0 0 12 17" fill="none" xmlns="http://www.w3.org/2000/svg">
<path d="M1.5 15V7.5H10.5V15H1.5ZM1.5 6C1.10218 6 0.720645 6.15804 0.439341 6.43934C0.158035 6.72064 0 7.10218 0 7.5V15C0 15.3978 0.158035 15.7794 0.439341 16.0607C0.720645 16.342 1.10218 16.5 1.5 16.5H10.5C10.8978 16.5 11.2794 16.342 11.5607 16.0607C11.842 15.7794 12 15.3978 12 15V7.5C12 7.10218 11.842 6.72064 11.5607 6.43934C11.2794 6.15804 10.8978 6 10.5 6H3.75V4.5C3.75 3.90326 3.98705 3.33097 4.40901 2.90901C4.83097 2.48705 5.40326 2.25 6 2.25C6.59674 2.25 7.16903 2.48705 7.59099 2.90901C8.01295 3.33097 8.25 3.90326 8.25 4.5H9.75C9.75 3.50544 9.35491 2.55161 8.65165 1.84835C7.94839 1.14509 6.99456 0.75 6 0.75C5.50754 0.75 5.01991 0.846997 4.56494 1.03545C4.10997 1.22391 3.69657 1.50013 3.34835 1.84835C3.00013 2.19657 2.72391 2.60997 2.53545 3.06494C2.347 3.51991 2.25 4.00754 2.25 4.5V6H1.5ZM6 12.75C6.39782 12.75 6.77936 12.592 7.06066 12.3107C7.34196 12.0294 7.5 11.6478 7.5 11.25C7.5 10.8522 7.34196 10.4706 7.06066 10.1893C6.77936 9.90804 6.39782 9.75 6 9.75C5.60218 9.75 5.22064 9.90804 4.93934 10.1893C4.65804 10.4706 4.5 10.8522 4.5 11.25C4.5 11.6478 4.65804 12.0294 4.93934 12.3107C5.22064 12.592 5.60218 12.75 6 12.75Z" fill="url(#paint0_linear_2487_313)"/>
<defs>
<linearGradient id="paint0_linear_2487_313" x1="2.48465" y1="0.750264" x2="11.7483" y2="13.3276" gradientUnits="userSpaceOnUse">
<stop stop-color="#16C062"/>
<stop offset="1" stop-color="#3EACFC"/>
</linearGradient>
</defs>
</svg>
