<svg width="80" height="52" viewBox="0 0 80 52" fill="none" xmlns="http://www.w3.org/2000/svg">
<g clip-path="url(#clip0_482_20126)">
<path d="M45.3803 51.8758C42.4809 51.8758 40.2483 51.5013 38.6826 50.7521C37.1168 50.0029 35.9861 49.0521 35.2902 47.8996C34.6523 46.747 34.2464 45.5368 34.0724 44.269C33.9564 43.0013 33.8984 41.8487 33.8984 40.8114V24.2148C33.8984 23.3504 33.9564 22.3131 34.0724 21.1029C34.2464 19.8351 34.6523 18.5962 35.2902 17.386C35.9861 16.1758 37.1168 15.1673 38.6826 14.3606C40.3063 13.5538 42.5389 13.1504 45.3803 13.1504H64.0819C67.9092 13.1504 70.8957 13.525 73.0413 14.2741C75.2449 14.9656 76.7816 16.1182 77.6514 17.7317C78.5793 19.3453 79.0432 21.5063 79.0432 24.2148V37.008H63.821C58.6019 37.008 54.3397 36.8928 51.0343 36.6623C47.7869 36.4318 45.6123 36.2877 44.5105 36.2301V40.9843C44.4525 43.2894 45.8443 44.4419 48.6857 44.4419H53.1219C56.2533 44.4419 59.2978 44.4131 62.2552 44.3555C65.2707 44.2402 68.0252 44.125 70.5187 44.0097C73.0123 43.8368 75.0129 43.6928 76.5206 43.5775L80 49.1962C80 50.9826 74.288 51.8758 62.8641 51.8758H45.3803ZM44.5105 29.5741H68.4311V24.0419C68.4311 22.8894 68.2861 22.0826 67.9962 21.6216C67.7642 21.1606 67.0104 20.8724 65.7346 20.7572C64.4588 20.6419 62.2842 20.5843 59.2108 20.5843H48.6857C45.9022 20.5843 44.5105 21.7368 44.5105 24.0419V29.5741Z" fill="url(#paint0_linear_482_20126)"/>
<path d="M16.6257 51.8745L16.5386 9.22491H0V0.919922H44.7456V9.22491H28.12V51.8745H16.6257Z" fill="url(#paint1_linear_482_20126)"/>
<path d="M49.0703 9.75436V0.876953H50.6838L51.4708 1.27327C52.0217 1.16758 52.6842 1.07511 53.4581 0.995847C54.232 0.916584 55.1174 0.876953 56.1144 0.876953H57.0982C57.754 0.876953 58.2591 0.969426 58.6132 1.15437C58.9674 1.33932 59.2166 1.5705 59.3609 1.84792C59.5183 2.12534 59.6101 2.40936 59.6364 2.69999C59.6757 2.97741 59.6954 3.2152 59.6954 3.41336V9.75436H57.2949V3.37372C57.2949 2.84531 56.9801 2.5811 56.3505 2.5811H52.0611C51.8119 2.5811 51.6479 2.60752 51.5692 2.66036C51.5036 2.69999 51.4708 2.81889 51.4708 3.01704V9.75436H49.0703Z" fill="url(#paint2_linear_482_20126)"/>
<path d="M64.6137 9.75436L65.0072 8.96174L68.4112 5.29584L64.6137 0.876953H67.6045L70.005 3.94838H70.2017L72.6416 0.876953H75.6323L75.3175 1.51105L71.7168 5.29584L75.6323 9.75436H72.6219L70.2017 6.78202H70.005L67.6045 9.75436H64.6137Z" fill="url(#paint3_linear_482_20126)"/>
</g>
<defs>
<linearGradient id="paint0_linear_482_20126" x1="70.4545" y1="13.151" x2="52.0571" y2="52.1795" gradientUnits="userSpaceOnUse">
<stop stop-color="#47FF99"/>
<stop offset="1" stop-color="#3EACFC"/>
</linearGradient>
<linearGradient id="paint1_linear_482_20126" x1="35.4809" y1="0.920776" x2="7.00212" y2="45.4858" gradientUnits="userSpaceOnUse">
<stop stop-color="#47FF99"/>
<stop offset="1" stop-color="#3EACFC"/>
</linearGradient>
<linearGradient id="paint2_linear_482_20126" x1="70.1325" y1="0.877102" x2="68.1514" y2="11.4404" gradientUnits="userSpaceOnUse">
<stop stop-color="#47FF99"/>
<stop offset="1" stop-color="#3EACFC"/>
</linearGradient>
<linearGradient id="paint3_linear_482_20126" x1="70.1325" y1="0.877102" x2="68.1514" y2="11.4404" gradientUnits="userSpaceOnUse">
<stop stop-color="#47FF99"/>
<stop offset="1" stop-color="#3EACFC"/>
</linearGradient>
<clipPath id="clip0_482_20126">
<rect width="80" height="50.9989" fill="white" transform="translate(0 0.876953)"/>
</clipPath>
</defs>
</svg>
