<svg width="16" height="9" viewBox="0 0 16 9" fill="none" xmlns="http://www.w3.org/2000/svg">
<path d="M8.49844 8.79637L15.8099 1.47954C15.9319 1.35745 16 1.19525 16 1.02658C16 0.857914 15.9319 0.695717 15.8099 0.573632L15.8016 0.565754C15.7424 0.506364 15.6712 0.459074 15.5923 0.426759C15.5133 0.394443 15.4283 0.377778 15.3424 0.377778C15.2565 0.377778 15.1715 0.394443 15.0925 0.426759C15.0136 0.459074 14.9424 0.506364 14.8832 0.565754L7.99862 7.45589L1.11681 0.565754C1.05764 0.506364 0.986415 0.459074 0.907473 0.426759C0.82853 0.394443 0.743518 0.377778 0.657608 0.377778C0.571698 0.377778 0.486687 0.394443 0.407743 0.426759C0.328801 0.459074 0.257578 0.506364 0.198408 0.565754L0.190145 0.573632C0.0680895 0.695717 -2.18052e-08 0.857914 -2.13535e-08 1.02658C-2.09018e-08 1.19525 0.0680895 1.35745 0.190145 1.47954L7.50156 8.79637C7.56586 8.86072 7.64319 8.91194 7.72887 8.94695C7.81455 8.98195 7.90679 9 8 9C8.09321 9 8.18545 8.98195 8.27113 8.94695C8.35681 8.91194 8.43415 8.86072 8.49844 8.79637Z" fill="url(#paint0_linear_2034_1306)"/>
<defs>
<linearGradient id="paint0_linear_2034_1306" x1="3.31287" y1="8.99986" x2="6.2555" y2="-0.730825" gradientUnits="userSpaceOnUse">
<stop stop-color="#16C062"/>
<stop offset="1" stop-color="#3EACFC"/>
</linearGradient>
</defs>
</svg>
