<svg width="25" height="25" viewBox="0 0 25 25" fill="none" xmlns="http://www.w3.org/2000/svg">
<path fill-rule="evenodd" clip-rule="evenodd" d="M0.796875 12.2218C0.796875 9.0392 2.06116 5.98696 4.31159 3.73652C6.56203 1.48608 9.61428 0.221802 12.7969 0.221802C15.9795 0.221802 19.0317 1.48608 21.2822 3.73652C23.5326 5.98696 24.7969 9.0392 24.7969 12.2218C24.7969 15.4044 23.5326 18.4566 21.2822 20.7071C19.0317 22.9575 15.9795 24.2218 12.7969 24.2218C9.61428 24.2218 6.56203 22.9575 4.31159 20.7071C2.06116 18.4566 0.796875 15.4044 0.796875 12.2218ZM12.7969 1.94308C10.0708 1.94308 7.45635 3.02601 5.52872 4.95365C3.60108 6.88128 2.51815 9.49571 2.51815 12.2218C2.51815 14.9479 3.60108 17.5623 5.52872 19.49C7.45635 21.4176 10.0708 22.5005 12.7969 22.5005C15.523 22.5005 18.1374 21.4176 20.065 19.49C21.9927 17.5623 23.0756 14.9479 23.0756 12.2218C23.0756 9.49571 21.9927 6.88128 20.065 4.95365C18.1374 3.02601 15.523 1.94308 12.7969 1.94308ZM14.1558 17.6574C14.1558 18.0178 14.0126 18.3634 13.7578 18.6183C13.5029 18.8731 13.1573 19.0163 12.7969 19.0163C12.4365 19.0163 12.0908 18.8731 11.836 18.6183C11.5811 18.3634 11.438 18.0178 11.438 17.6574C11.438 17.297 11.5811 16.9514 11.836 16.6965C12.0908 16.4417 12.4365 16.2985 12.7969 16.2985C13.1573 16.2985 13.5029 16.4417 13.7578 16.6965C14.0126 16.9514 14.1558 17.297 14.1558 17.6574ZM10.1697 9.95697C10.1697 8.72852 11.2296 7.55624 12.7969 7.55624C14.3641 7.55624 15.4241 8.72852 15.4241 9.95697C15.4241 10.8466 14.9349 11.3014 14.0905 11.8141C13.9981 11.8721 13.8894 11.9337 13.7717 12.0026C13.4176 12.1982 13.0763 12.416 12.7498 12.6548C12.3113 12.9955 11.8003 13.5481 11.8003 14.396C11.7994 14.6603 11.9035 14.9142 12.0897 15.1018C12.2759 15.2893 12.529 15.3952 12.7933 15.3962C13.0575 15.3972 13.3114 15.2931 13.499 15.1069C13.6865 14.9207 13.7924 14.6676 13.7934 14.4033C13.844 14.3349 13.9052 14.2749 13.9746 14.2257C14.1594 14.0826 14.3641 13.9648 14.6377 13.8054C14.7791 13.7238 14.9403 13.6296 15.1269 13.5173C16.0945 12.9284 17.4171 11.9573 17.4171 9.95697C17.4171 7.56168 15.3969 5.56319 12.7969 5.56319C10.1968 5.56319 8.17661 7.56168 8.17661 9.95697C8.17661 10.2213 8.2816 10.4747 8.46849 10.6616C8.65537 10.8485 8.90884 10.9535 9.17314 10.9535C9.43744 10.9535 9.69091 10.8485 9.87779 10.6616C10.0647 10.4747 10.1697 10.2213 10.1697 9.95697Z" fill="#CCCCCC"/>
</svg>
