<svg width="10" height="10" viewBox="0 0 10 10" fill="none" xmlns="http://www.w3.org/2000/svg">
<g clip-path="url(#clip0_849_2356)">
<path d="M8.87046 2.45425L4.70379 6.62092C4.66524 6.65954 4.61946 6.69019 4.56905 6.7111C4.51865 6.73201 4.46461 6.74277 4.41004 6.74277C4.35547 6.74277 4.30144 6.73201 4.25103 6.7111C4.20062 6.69019 4.15484 6.65954 4.11629 6.62092L2.93712 5.44175C2.89855 5.40318 2.86795 5.35738 2.84707 5.30698C2.82619 5.25658 2.81545 5.20256 2.81545 5.148C2.81545 5.09345 2.82619 5.03943 2.84707 4.98902C2.86795 4.93862 2.89855 4.89283 2.93712 4.85425C2.9757 4.81568 3.0215 4.78508 3.0719 4.7642C3.1223 4.74332 3.17632 4.73258 3.23087 4.73258C3.28543 4.73258 3.33945 4.74332 3.38985 4.7642C3.44025 4.78508 3.48605 4.81568 3.52462 4.85425L4.40796 5.73758L8.27879 1.86675C8.31734 1.82812 8.36313 1.79748 8.41353 1.77657C8.46394 1.75566 8.51797 1.7449 8.57254 1.7449C8.62711 1.7449 8.68115 1.75566 8.73155 1.77657C8.78196 1.79748 8.82774 1.82812 8.86629 1.86675C9.03296 2.02925 9.03296 2.29175 8.87046 2.45425ZM6.57046 1.14175C5.86629 0.854251 5.06629 0.754251 4.23296 0.904251C2.53712 1.20842 1.18296 2.57508 0.895457 4.27092C0.781478 4.91701 0.821521 5.58087 1.01233 6.20858C1.20315 6.83628 1.53934 7.41012 1.99361 7.88347C2.44789 8.35682 3.00741 8.71633 3.62674 8.9328C4.24607 9.14926 4.90773 9.21657 5.55796 9.12925C7.20796 8.91675 8.59129 7.68758 9.02462 6.08342C9.19129 5.47092 9.20796 4.87925 9.11213 4.32508C9.05796 3.99175 8.64546 3.86258 8.40379 4.10008C8.30796 4.19592 8.26629 4.33758 8.29129 4.47092C8.38296 5.02508 8.34129 5.61675 8.07463 6.24592C7.59129 7.37508 6.54129 8.20425 5.32046 8.31675C3.19546 8.51258 1.43296 6.71258 1.69546 4.57508C1.87462 3.10008 3.06212 1.90008 4.53296 1.69592C5.25379 1.59592 5.93712 1.73342 6.52046 2.03342C6.61881 2.0848 6.73354 2.09501 6.83942 2.06181C6.9453 2.0286 7.03366 1.95469 7.08504 1.85633C7.13643 1.75798 7.14664 1.64325 7.11343 1.53737C7.08022 1.43149 7.00631 1.34314 6.90796 1.29175C6.79546 1.24175 6.68296 1.18758 6.57046 1.14175Z" fill="url(#paint0_linear_849_2356)"/>
</g>
<defs>
<linearGradient id="paint0_linear_849_2356" x1="7.44416" y1="0.835101" x2="3.06647" y2="8.64295" gradientUnits="userSpaceOnUse">
<stop stop-color="#16C062"/>
<stop offset="1" stop-color="#3EACFC"/>
</linearGradient>
<clipPath id="clip0_849_2356">
<rect width="10" height="10" fill="white"/>
</clipPath>
</defs>
</svg>
