<svg width="9" height="5" viewBox="0 0 9 5" fill="none" xmlns="http://www.w3.org/2000/svg">
<path d="M4.78037 4.88191L8.89304 0.638906C8.9617 0.56811 9 0.474051 9 0.37624C9 0.278429 8.9617 0.184371 8.89304 0.113575L8.8884 0.109006C8.85511 0.0745664 8.81505 0.047143 8.77064 0.0284033C8.72624 0.00966361 8.67842 2.77481e-08 8.6301 3.19179e-08C8.58177 3.60876e-08 8.53395 0.00966362 8.48955 0.0284033C8.44514 0.047143 8.40508 0.0745664 8.3718 0.109006L4.49923 4.10458L0.628205 0.109007C0.594922 0.0745671 0.554859 0.0471437 0.510454 0.028404C0.466048 0.00966432 0.418229 7.40494e-07 0.369905 7.44664e-07C0.32158 7.48834e-07 0.273761 0.00966433 0.229356 0.028404C0.18495 0.0471437 0.144887 0.0745671 0.111604 0.109007L0.106957 0.113576C0.0383001 0.184372 -4.18207e-07 0.27843 -4.09543e-07 0.376241C-4.0088e-07 0.474052 0.0383001 0.568111 0.106957 0.638907L4.21963 4.88191C4.25579 4.91923 4.29929 4.94894 4.34749 4.96924C4.39568 4.98953 4.44757 5 4.5 5C4.55243 5 4.60432 4.98953 4.65251 4.96924C4.70071 4.94894 4.74421 4.91923 4.78037 4.88191Z" fill="white"/>
</svg>
