<svg width="9" height="5" viewBox="0 0 9 5" fill="none" xmlns="http://www.w3.org/2000/svg">
<path d="M4.78037 4.81051L8.89304 0.694788C8.9617 0.626116 9 0.534879 9 0.440002C9 0.345125 8.9617 0.25389 8.89304 0.185216L8.8884 0.180785C8.85511 0.147378 8.81505 0.120778 8.77064 0.102601C8.72624 0.0844231 8.67842 0.075049 8.6301 0.075049C8.58177 0.075049 8.53395 0.0844231 8.48955 0.102601C8.44514 0.120778 8.40508 0.147378 8.3718 0.180785L4.49923 4.05649L0.628205 0.180786C0.594922 0.147379 0.554859 0.120779 0.510454 0.102601C0.466048 0.0844238 0.418229 0.0750497 0.369905 0.0750497C0.32158 0.0750497 0.273761 0.0844238 0.229356 0.102601C0.18495 0.120779 0.144888 0.147379 0.111604 0.180786L0.106957 0.185217C0.0383001 0.25389 -4.0523e-07 0.345126 -3.96835e-07 0.440003C-3.88441e-07 0.53488 0.0383001 0.626117 0.106957 0.694789L4.21963 4.81051C4.25579 4.8467 4.29929 4.87552 4.34749 4.89521C4.39568 4.9149 4.44757 4.92505 4.5 4.92505C4.55243 4.92505 4.60432 4.9149 4.65251 4.89521C4.70071 4.87552 4.74421 4.8467 4.78037 4.81051Z" fill="url(#paint0_linear_1057_3008)"/>
<defs>
<linearGradient id="paint0_linear_1057_3008" x1="1.86349" y1="4.92497" x2="3.51872" y2="-0.54854" gradientUnits="userSpaceOnUse">
<stop stop-color="#16C062"/>
<stop offset="1" stop-color="#3EACFC"/>
</linearGradient>
</defs>
</svg>
