<svg width="16" height="18" viewBox="0 0 16 18" fill="none" xmlns="http://www.w3.org/2000/svg">
<path d="M8.12297 0.875C8.73464 0.881667 9.34381 0.9525 9.94131 1.08583C10.0684 1.11421 10.1835 1.18159 10.2704 1.27855C10.3574 1.37552 10.4119 1.49722 10.4263 1.62667L10.568 2.89917C10.588 3.07857 10.6498 3.25077 10.7485 3.40192C10.8472 3.55307 10.98 3.67894 11.1362 3.76941C11.2924 3.85988 11.4677 3.91241 11.6479 3.92279C11.8281 3.93317 12.0082 3.9011 12.1738 3.82917L13.3405 3.31667C13.459 3.26446 13.5908 3.25037 13.7177 3.27634C13.8446 3.30232 13.9603 3.36708 14.0488 3.46167C14.8922 4.36263 15.5204 5.44303 15.8863 6.62167C15.9245 6.74562 15.9233 6.87839 15.8826 7.00157C15.842 7.12476 15.7641 7.23226 15.6596 7.30917L14.6255 8.0725C14.4798 8.17931 14.3613 8.31894 14.2796 8.48008C14.1979 8.64122 14.1554 8.81934 14.1554 9C14.1554 9.18066 14.1979 9.35878 14.2796 9.51992C14.3613 9.68106 14.4798 9.82069 14.6255 9.9275L15.6613 10.69C15.7659 10.767 15.844 10.8746 15.8846 10.998C15.9252 11.1213 15.9264 11.2543 15.888 11.3783C15.5223 12.5569 14.8944 13.6373 14.0513 14.5383C13.963 14.6329 13.8475 14.6977 13.7208 14.7238C13.594 14.7499 13.4623 14.7361 13.3438 14.6842L12.1721 14.17C12.0068 14.0975 11.8267 14.065 11.6465 14.075C11.4662 14.085 11.2908 14.1373 11.1346 14.2277C10.9783 14.3181 10.8455 14.444 10.7469 14.5953C10.6483 14.7465 10.5867 14.9189 10.5671 15.0983L10.4255 16.37C10.4113 16.4979 10.358 16.6184 10.2729 16.7149C10.1877 16.8114 10.0748 16.8792 9.94964 16.9092C8.74266 17.1969 7.48495 17.1969 6.27797 16.9092C6.15264 16.8794 6.03958 16.8116 5.95425 16.7151C5.86892 16.6186 5.81551 16.498 5.80131 16.37L5.66047 15.1C5.64002 14.9211 5.57789 14.7495 5.47909 14.5989C5.38028 14.4484 5.24755 14.3231 5.09155 14.2331C4.93555 14.1432 4.76063 14.0911 4.58084 14.081C4.40105 14.0709 4.2214 14.1031 4.05631 14.175L2.88464 14.6883C2.76602 14.7404 2.63414 14.7544 2.50724 14.7283C2.38034 14.7021 2.2647 14.6372 2.17631 14.5425C1.33308 13.6404 0.705394 12.5588 0.340473 11.3792C0.302053 11.2551 0.303236 11.1222 0.343858 10.9988C0.38448 10.8754 0.462523 10.7678 0.567139 10.6908L1.60297 9.9275C1.74868 9.82069 1.86717 9.68106 1.94885 9.51992C2.03052 9.35878 2.07309 9.18066 2.07309 9C2.07309 8.81934 2.03052 8.64122 1.94885 8.48008C1.86717 8.31894 1.74868 8.17931 1.60297 8.0725L0.567139 7.31083C0.462523 7.23387 0.38448 7.12623 0.343858 7.00287C0.303236 6.87951 0.302053 6.74656 0.340473 6.6225C0.70634 5.44386 1.33458 4.36346 2.17797 3.4625C2.26646 3.36791 2.38215 3.30315 2.50904 3.27718C2.63594 3.2512 2.76777 3.26529 2.88631 3.3175L4.05297 3.83C4.21882 3.90189 4.39922 3.93388 4.57968 3.92341C4.76014 3.91293 4.93562 3.86027 5.09203 3.76966C5.24845 3.67906 5.38143 3.55303 5.4803 3.4017C5.57916 3.25037 5.64116 3.07797 5.66131 2.89833L5.80297 1.62667C5.81727 1.49696 5.87181 1.37499 5.95894 1.27785C6.04607 1.1807 6.16141 1.11327 6.28881 1.085C6.88547 0.952778 7.49686 0.882778 8.12297 0.875ZM8.12297 2.125C7.74494 2.12902 7.36776 2.16161 6.99464 2.2225L6.90297 3.03667C6.86128 3.41109 6.73222 3.77048 6.52618 4.08587C6.32013 4.40127 6.04288 4.66385 5.71676 4.85245C5.39063 5.04106 5.02476 5.15041 4.64863 5.17169C4.2725 5.19298 3.89663 5.12561 3.55131 4.975L2.80214 4.64667C2.32592 5.22497 1.94682 5.87679 1.67964 6.57667L2.34381 7.06583C2.64752 7.28872 2.8945 7.57997 3.06477 7.91602C3.23503 8.25207 3.32379 8.62348 3.32387 9.00021C3.32396 9.37693 3.23535 9.74838 3.06523 10.0845C2.89511 10.4206 2.64826 10.712 2.34464 10.935L1.67881 11.425C1.94547 12.1267 2.32547 12.78 2.80214 13.36L3.55631 13.0292C3.90088 12.8787 4.27597 12.8113 4.65137 12.8323C5.02677 12.8533 5.392 12.9621 5.71765 13.15C6.04331 13.3379 6.3203 13.5997 6.52632 13.9142C6.73234 14.2287 6.86164 14.5872 6.90381 14.9608L6.99464 15.7808C7.73631 15.9058 8.49381 15.9058 9.23464 15.7808L9.32631 14.9608C9.36762 14.5867 9.49638 14.2275 9.70217 13.9122C9.90796 13.597 10.185 13.3346 10.511 13.1463C10.8369 12.9579 11.2026 12.8489 11.5784 12.8279C11.9543 12.807 12.3298 12.8748 12.6746 13.0258L13.428 13.3558C13.9046 12.7771 14.284 12.1247 14.5513 11.4242L13.8863 10.9342C13.5826 10.7113 13.3356 10.42 13.1653 10.084C12.9951 9.74793 12.9063 9.37652 12.9062 8.99979C12.9062 8.62307 12.9948 8.25162 13.1649 7.9155C13.335 7.57937 13.5819 7.28801 13.8855 7.065L14.5496 6.57583C14.2823 5.87561 13.9029 5.22349 13.4263 4.645L12.6788 4.9725C12.3336 5.12362 11.9577 5.19145 11.5814 5.17051C11.2052 5.14957 10.8391 5.04044 10.5128 4.85195C10.1865 4.66345 9.9091 4.40086 9.70299 4.08538C9.49688 3.7699 9.36785 3.41038 9.32631 3.03583L9.23547 2.2225C8.86785 2.16244 8.49543 2.12985 8.12297 2.125ZM8.11297 5.875C8.94177 5.875 9.73663 6.20424 10.3227 6.79029C10.9087 7.37634 11.238 8.1712 11.238 9C11.238 9.8288 10.9087 10.6237 10.3227 11.2097C9.73663 11.7958 8.94177 12.125 8.11297 12.125C7.28417 12.125 6.48932 11.7958 5.90326 11.2097C5.31721 10.6237 4.98797 9.8288 4.98797 9C4.98797 8.1712 5.31721 7.37634 5.90326 6.79029C6.48932 6.20424 7.28417 5.875 8.11297 5.875ZM8.11297 7.125C7.61569 7.125 7.13878 7.32254 6.78715 7.67418C6.43552 8.02581 6.23797 8.50272 6.23797 9C6.23797 9.49728 6.43552 9.97419 6.78715 10.3258C7.13878 10.6775 7.61569 10.875 8.11297 10.875C8.61025 10.875 9.08717 10.6775 9.4388 10.3258C9.79043 9.97419 9.98797 9.49728 9.98797 9C9.98797 8.50272 9.79043 8.02581 9.4388 7.67418C9.08717 7.32254 8.61025 7.125 8.11297 7.125Z" fill="#CCCCCC"/>
</svg>
