<svg width="19" height="19" viewBox="0 0 19 19" fill="none" xmlns="http://www.w3.org/2000/svg">
<path d="M17.4428 7.11877C17.3725 6.90258 17.2398 6.71203 17.0613 6.57114C16.8829 6.43026 16.6668 6.34532 16.4402 6.32705L12.2917 5.99236L10.69 2.11885C10.6034 1.90778 10.456 1.72724 10.2665 1.60018C10.077 1.47312 9.85398 1.40527 9.62583 1.40527C9.39768 1.40527 9.17468 1.47312 8.98519 1.60018C8.7957 1.72724 8.64827 1.90778 8.56165 2.11885L6.96133 5.99166L2.81079 6.32705C2.5838 6.34625 2.36753 6.432 2.18907 6.57357C2.0106 6.71514 1.87788 6.90622 1.80754 7.12289C1.7372 7.33955 1.73236 7.57215 1.79362 7.79155C1.85489 8.01096 1.97954 8.2074 2.15196 8.35627L5.31602 11.0865L4.35204 15.1688C4.29812 15.3906 4.31132 15.6234 4.38996 15.8377C4.4686 16.052 4.60913 16.238 4.79371 16.3723C4.97829 16.5066 5.1986 16.5829 5.42668 16.5918C5.65475 16.6006 5.8803 16.5414 6.07469 16.4218L9.62548 14.2365L13.1784 16.4218C13.3728 16.54 13.5979 16.598 13.8253 16.5885C14.0527 16.5791 14.2721 16.5025 14.4561 16.3686C14.64 16.2346 14.7802 16.0492 14.859 15.8357C14.9378 15.6222 14.9517 15.3902 14.8989 15.1688L13.9314 11.0858L17.0955 8.35557C17.2693 8.20694 17.3951 8.01008 17.4569 7.7899C17.5188 7.56973 17.5138 7.33615 17.4428 7.11877ZM16.3642 7.50338L12.94 10.4565C12.8619 10.5238 12.8038 10.6113 12.7721 10.7094C12.7403 10.8075 12.7362 10.9124 12.76 11.0127L13.8063 15.4283C13.809 15.4344 13.8092 15.4413 13.807 15.4476C13.8048 15.4538 13.8002 15.459 13.7943 15.4621C13.7816 15.4719 13.7781 15.4698 13.7676 15.4621L9.92008 13.096C9.83147 13.0416 9.72949 13.0127 9.62548 13.0127C9.52146 13.0127 9.41948 13.0416 9.33087 13.096L5.48337 15.4635C5.47282 15.4698 5.47001 15.4719 5.45665 15.4635C5.45071 15.4604 5.44616 15.4552 5.44394 15.449C5.44172 15.4427 5.44199 15.4358 5.44469 15.4297L6.49094 11.0141C6.51479 10.9138 6.51061 10.8089 6.47887 10.7108C6.44712 10.6127 6.38903 10.5252 6.31094 10.4579L2.88672 7.50479C2.87829 7.49775 2.87055 7.49143 2.87758 7.46963C2.88462 7.44783 2.89024 7.45064 2.90079 7.44924L7.39516 7.08643C7.49825 7.07758 7.5969 7.04048 7.68026 6.9792C7.76362 6.91792 7.82847 6.83483 7.86766 6.73908L9.59876 2.54775C9.60438 2.5358 9.60649 2.53018 9.62337 2.53018C9.64024 2.53018 9.64235 2.5358 9.64798 2.54775L11.3833 6.73908C11.4229 6.83487 11.4881 6.91787 11.5719 6.97891C11.6556 7.03996 11.7546 7.07668 11.8579 7.08502L16.3523 7.44783C16.3628 7.44783 16.3691 7.44783 16.3755 7.46822C16.3818 7.48861 16.3755 7.49635 16.3642 7.50338Z" fill="url(#paint0_linear_246_16055)"/>
<defs>
<linearGradient id="paint0_linear_246_16055" x1="14.2391" y1="1.40553" x2="6.40863" y2="15.8753" gradientUnits="userSpaceOnUse">
<stop stop-color="#16C062"/>
<stop offset="1" stop-color="#3EACFC"/>
</linearGradient>
</defs>
</svg>
