<svg width="89" height="36" viewBox="0 0 89 36" fill="none" xmlns="http://www.w3.org/2000/svg">
<path d="M25.4387 6.6249L32.4694 22.11L35.8306 15.834C36.0254 15.498 36.0474 15.0936 35.8902 14.7398L29.7256 0.778947C29.4967 0.263666 28.8872 -0.0684412 28.313 0.0119799L12.7218 2.19552C11.9555 2.29717 10.9941 2.76173 10.5135 3.38115L6.3475 9.26561L25.4387 6.6249Z" fill="url(#paint0_linear_3177_1109)"/>
<path d="M23.8872 23.808L20.6318 17.509L24.5309 10.7451L31.0474 24.8409C31.2791 25.3551 30.9235 26.1304 30.4695 26.4796L18.5251 35.7304C18.2133 35.9702 17.8039 36.0563 17.4172 35.9633L10.371 34.0138L23.8872 23.808Z" fill="url(#paint1_linear_3177_1109)"/>
<path d="M11.2019 16.978L18.3922 16.3031L22.2912 9.53919L6.5249 11.6374L6.52444 11.6374C5.66262 11.7847 5.66235 11.7848 4.54095 11.9396L0.375 18.1337L4.86141 17.6692L3.53429 27.659C3.48734 28.0414 3.62709 28.4232 3.91242 28.692L9.33597 33.4566L11.2019 16.978Z" fill="url(#paint2_linear_3177_1109)"/>
<path d="M71.0654 3.1H58.1135V35.4999H54.53V3.1H41.5781V0H71.0654V3.1Z" fill="url(#paint3_linear_3177_1109)"/>
<path d="M75.2153 36C73.2699 36 71.4782 35.65 69.84 34.95C68.2018 34.2167 66.7855 33.2333 65.591 32C64.3964 30.7333 63.4579 29.2833 62.7753 27.65C62.1269 26.0167 61.8027 24.2667 61.8027 22.4C61.8027 20.5667 62.1269 18.85 62.7753 17.25C63.4579 15.6167 64.3964 14.2 65.591 13C66.7855 11.7667 68.1847 10.8 69.7888 10.1C71.427 9.36671 73.2187 9.00005 75.1641 9.00005C77.1094 9.00005 78.8841 9.36671 80.4882 10.1C82.1264 10.8 83.5257 11.7667 84.686 13C85.8464 14.2334 86.7508 15.65 87.3993 17.25C88.0477 18.85 88.3719 20.55 88.3719 22.35C88.3719 22.6167 88.3549 22.8834 88.3208 23.15C88.3208 23.4167 88.3037 23.6 88.2696 23.7H65.4886C65.591 25.1 65.9152 26.4 66.4612 27.6C67.0414 28.7667 67.7581 29.7833 68.6114 30.65C69.4987 31.5167 70.5055 32.2 71.6318 32.7C72.7921 33.1667 74.0208 33.4 75.3177 33.4C76.205 33.4 77.0753 33.2833 77.9285 33.05C78.7817 32.8167 79.5667 32.5 80.2834 32.1C81.0001 31.7 81.6315 31.2167 82.1776 30.65C82.7578 30.05 83.2014 29.4 83.5086 28.7L86.529 29.5C86.1194 30.4667 85.5393 31.35 84.7884 32.15C84.0376 32.9167 83.1673 33.6 82.1776 34.2C81.1878 34.7667 80.0957 35.2 78.9012 35.5C77.7067 35.8333 76.4781 36 75.2153 36ZM85.0444 21.1C84.942 19.7 84.6007 18.4334 84.0205 17.3C83.4745 16.1334 82.7578 15.1334 81.8704 14.3C81.0172 13.4667 80.0104 12.8167 78.85 12.35C77.6896 11.8834 76.461 11.65 75.1641 11.65C73.8672 11.65 72.6386 11.8834 71.4782 12.35C70.3178 12.8167 69.2939 13.4667 68.4066 14.3C67.5534 15.1334 66.8537 16.1334 66.3077 17.3C65.7957 18.4667 65.4886 19.7334 65.3862 21.1H85.0444Z" fill="url(#paint4_linear_3177_1109)"/>
<path d="M80.0775 7.44159H78.5149V3.35399C78.5149 2.66574 78.4013 2.16816 78.174 1.86124C77.9467 1.54502 77.62 1.38691 77.1939 1.38691C76.9666 1.38691 76.7346 1.42877 76.4978 1.51247C76.2705 1.59618 76.0575 1.71708 75.8586 1.87519C75.6597 2.024 75.4798 2.20536 75.3188 2.41928C75.1673 2.62389 75.0489 2.85175 74.9637 3.10287V7.44159H73.4011V0.145287H74.8216V1.61013C75.1057 1.1172 75.5177 0.731223 76.0575 0.452205C76.5972 0.163888 77.1939 0.019729 77.8473 0.019729C78.2924 0.019729 78.657 0.0987838 78.9411 0.256893C79.2346 0.415003 79.4619 0.633567 79.6229 0.912584C79.7934 1.1823 79.9117 1.49852 79.978 1.86124C80.0443 2.21467 80.0775 2.59134 80.0775 2.99126V7.44159Z" fill="url(#paint5_linear_3177_1109)"/>
<path d="M82.6592 0.145948L84.4775 2.64315L84.6053 2.88032L84.7332 2.64315L86.5514 0.145948H88.1708L85.4576 3.80107L88.1992 7.44225H86.5656L84.7332 4.959L84.6053 4.73578L84.4917 4.959L82.645 7.44225H81.0114L83.753 3.80107L81.0399 0.145948H82.6592Z" fill="url(#paint6_linear_3177_1109)"/>
<defs>
<linearGradient id="paint0_linear_3177_1109" x1="28.6191" y1="0.000603339" x2="9.59004" y2="33.5515" gradientUnits="userSpaceOnUse">
<stop stop-color="#16C062"/>
<stop offset="1" stop-color="#3EACFC"/>
</linearGradient>
<linearGradient id="paint1_linear_3177_1109" x1="28.6191" y1="0.000603339" x2="9.59004" y2="33.5515" gradientUnits="userSpaceOnUse">
<stop stop-color="#16C062"/>
<stop offset="1" stop-color="#3EACFC"/>
</linearGradient>
<linearGradient id="paint2_linear_3177_1109" x1="28.6191" y1="0.000603339" x2="9.59004" y2="33.5515" gradientUnits="userSpaceOnUse">
<stop stop-color="#16C062"/>
<stop offset="1" stop-color="#3EACFC"/>
</linearGradient>
<linearGradient id="paint3_linear_3177_1109" x1="88.4951" y1="-7.75315e-07" x2="42.5117" y2="37.1553" gradientUnits="userSpaceOnUse">
<stop stop-color="#16C062"/>
<stop offset="1" stop-color="#3EACFC"/>
</linearGradient>
<linearGradient id="paint4_linear_3177_1109" x1="88.4951" y1="-7.75315e-07" x2="42.5117" y2="37.1553" gradientUnits="userSpaceOnUse">
<stop stop-color="#16C062"/>
<stop offset="1" stop-color="#3EACFC"/>
</linearGradient>
<linearGradient id="paint5_linear_3177_1109" x1="88.4951" y1="-7.75315e-07" x2="42.5117" y2="37.1553" gradientUnits="userSpaceOnUse">
<stop stop-color="#16C062"/>
<stop offset="1" stop-color="#3EACFC"/>
</linearGradient>
<linearGradient id="paint6_linear_3177_1109" x1="88.4951" y1="-7.75315e-07" x2="42.5117" y2="37.1553" gradientUnits="userSpaceOnUse">
<stop stop-color="#16C062"/>
<stop offset="1" stop-color="#3EACFC"/>
</linearGradient>
</defs>
</svg>
