<svg width="40" height="41" viewBox="0 0 40 41" fill="none" xmlns="http://www.w3.org/2000/svg">
<path d="M40 20.5C40 31.5457 31.0457 40.5 20 40.5C8.9543 40.5 0 31.5457 0 20.5C0 9.4543 8.9543 0.5 20 0.5C31.0457 0.5 40 9.4543 40 20.5Z" fill="#50AF95"/>
<path fill-rule="evenodd" clip-rule="evenodd" d="M22.7117 21.8148C22.5703 21.826 21.8396 21.8719 20.2099 21.8719C18.9136 21.8719 17.9932 21.8309 17.6703 21.8148C12.6607 21.5826 8.92152 20.6636 8.92152 19.5634C8.92152 18.4632 12.6607 17.5455 17.6703 17.3095V20.8996C17.9979 20.9244 18.936 20.9828 20.2322 20.9828C21.7878 20.9828 22.5667 20.9145 22.707 20.9008V17.312C27.7059 17.5467 31.4369 18.4656 31.4369 19.5634C31.4369 20.6611 27.7071 21.5801 22.707 21.8135L22.7117 21.8148ZM22.7117 16.9407V13.7282H29.6881V8.82926H10.6939V13.7282H17.6691V16.9395C11.9996 17.2139 7.736 18.3973 7.736 19.8155C7.736 21.2336 11.9996 22.4158 17.6691 22.6915V32.986H22.7105V22.6878C28.3671 22.4133 32.6236 21.2311 32.6236 19.8142C32.6236 18.3973 28.3706 17.2151 22.7105 16.9395L22.7117 16.9407Z" fill="white"/>
</svg>
