<svg width="19" height="19" viewBox="0 0 19 19" fill="none" xmlns="http://www.w3.org/2000/svg">
<path d="M14.3004 14.9047C15.5416 13.6635 16.4433 12.0847 16.4433 10.1904C16.4433 8.37177 15.7208 6.62763 14.4349 5.34166C13.1489 4.0557 11.4048 3.33325 9.58615 3.33325C7.76752 3.33325 6.02338 4.0557 4.73741 5.34166C3.45145 6.62763 2.729 8.37177 2.729 10.1904C2.729 12.0847 3.63072 13.6635 4.87186 14.9047M9.58615 10.1904L6.15758 6.76182" stroke="#EB5540" stroke-width="1.14286" stroke-linecap="round" stroke-linejoin="round"/>
<path d="M9.58601 11.4761C10.2961 11.4761 10.8717 10.9005 10.8717 10.1904C10.8717 9.4803 10.2961 8.90466 9.58601 8.90466C8.87593 8.90466 8.30029 9.4803 8.30029 10.1904C8.30029 10.9005 8.87593 11.4761 9.58601 11.4761Z" fill="#EB5540"/>
</svg>
