<svg width="18" height="18" viewBox="0 0 18 18" fill="none" xmlns="http://www.w3.org/2000/svg">
<path d="M4.5 15V7.5H13.5V15H4.5ZM4.5 6C4.10218 6 3.72064 6.15804 3.43934 6.43934C3.15804 6.72064 3 7.10218 3 7.5V15C3 15.3978 3.15804 15.7794 3.43934 16.0607C3.72064 16.342 4.10218 16.5 4.5 16.5H13.5C13.8978 16.5 14.2794 16.342 14.5607 16.0607C14.842 15.7794 15 15.3978 15 15V7.5C15 7.10218 14.842 6.72064 14.5607 6.43934C14.2794 6.15804 13.8978 6 13.5 6H6.75V4.5C6.75 3.90326 6.98705 3.33097 7.40901 2.90901C7.83097 2.48705 8.40326 2.25 9 2.25C9.59674 2.25 10.169 2.48705 10.591 2.90901C11.0129 3.33097 11.25 3.90326 11.25 4.5H12.75C12.75 3.50544 12.3549 2.55161 11.6517 1.84835C10.9484 1.14509 9.99456 0.75 9 0.75C8.50754 0.75 8.01991 0.846997 7.56494 1.03545C7.10997 1.22391 6.69657 1.50013 6.34835 1.84835C6.00013 2.19657 5.72391 2.60997 5.53545 3.06494C5.347 3.51991 5.25 4.00754 5.25 4.5V6H4.5ZM9 12.75C9.39782 12.75 9.77936 12.592 10.0607 12.3107C10.342 12.0294 10.5 11.6478 10.5 11.25C10.5 10.8522 10.342 10.4706 10.0607 10.1893C9.77936 9.90804 9.39782 9.75 9 9.75C8.60218 9.75 8.22064 9.90804 7.93934 10.1893C7.65804 10.4706 7.5 10.8522 7.5 11.25C7.5 11.6478 7.65804 12.0294 7.93934 12.3107C8.22064 12.592 8.60218 12.75 9 12.75Z" fill="url(#paint0_linear_1799_1909)"/>
<defs>
<linearGradient id="paint0_linear_1799_1909" x1="5.48465" y1="0.750264" x2="14.7483" y2="13.3276" gradientUnits="userSpaceOnUse">
<stop stop-color="#16C062"/>
<stop offset="1" stop-color="#3EACFC"/>
</linearGradient>
</defs>
</svg>
