<svg width="16" height="16" viewBox="0 0 16 16" fill="none" xmlns="http://www.w3.org/2000/svg">
<path d="M16 8C16 12.4183 12.4183 16 8 16C3.58172 16 0 12.4183 0 8C0 3.58172 3.58172 0 8 0C12.4183 0 16 3.58172 16 8Z" fill="#50AF95"/>
<path fill-rule="evenodd" clip-rule="evenodd" d="M9.08468 8.52591C9.02811 8.53038 8.73586 8.54876 8.08394 8.54876C7.56543 8.54876 7.19728 8.53237 7.06812 8.52591C5.06429 8.43303 3.56861 8.06545 3.56861 7.62536C3.56861 7.18526 5.06429 6.81819 7.06812 6.72381V8.15983C7.19916 8.16976 7.57438 8.19311 8.0929 8.19311C8.71512 8.19311 9.0267 8.16579 9.08279 8.16033V6.7248C11.0824 6.81868 12.5748 7.18626 12.5748 7.62536C12.5748 8.06446 11.0829 8.43203 9.08279 8.52542L9.08468 8.52591ZM9.08468 6.57628V5.29127H11.8752V3.33171H4.27756V5.29127H7.06765V6.57579C4.79985 6.68556 3.0944 7.15894 3.0944 7.72619C3.0944 8.29345 4.79985 8.76632 7.06765 8.8766V12.9944H9.08421V8.87511C11.3468 8.76533 13.0494 8.29245 13.0494 7.7257C13.0494 7.15894 11.3482 6.68606 9.08421 6.57579L9.08468 6.57628Z" fill="white"/>
</svg>
